<?xml version="1.0" encoding="UTF-8"?>
<svg xmlns="http://www.w3.org/2000/svg" xmlns:xlink="http://www.w3.org/1999/xlink" width="40px" height="40px" viewBox="0 0 40 40" version="1.1">
<defs>
<linearGradient id="linear0" gradientUnits="userSpaceOnUse" x1="0.104917" y1="256.00882" x2="511.98117" y2="256.00882" gradientTransform="matrix(0.078125,0,0,0.078125,-0.00819656,-0.00176132)">
<stop offset="0" style="stop-color:rgb(100%,40%,0%);stop-opacity:1;"/>
<stop offset="1" style="stop-color:rgb(9.019608%,0%,86.27451%);stop-opacity:1;"/>
</linearGradient>
<linearGradient id="linear1" gradientUnits="userSpaceOnUse" x1="0.104917" y1="256.00882" x2="511.98117" y2="256.00882" gradientTransform="matrix(0.078125,0,0,0.078125,-0.00819656,-0.00176132)">
<stop offset="0" style="stop-color:rgb(100%,40%,0%);stop-opacity:1;"/>
<stop offset="1" style="stop-color:rgb(9.019608%,0%,86.27451%);stop-opacity:1;"/>
</linearGradient>
</defs>
<g id="surface1">
<path style=" stroke:none;fill-rule:nonzero;fill:url(#linear0);" d="M 39.765625 0.515625 C 39.695312 0.367188 39.617188 0.226562 39.476562 0.226562 C 34.242188 -1.085938 22.171875 3.5 15.632812 10.039062 C 14.320312 11.351562 13.304688 12.585938 12.4375 13.820312 C 10.398438 13.601562 8.367188 13.820312 6.695312 14.546875 C 1.828125 16.65625 0.367188 22.25 0.0078125 24.65625 C -0.0625 25.234375 0.375 25.75 0.953125 25.671875 L 8.734375 24.796875 C 8.734375 25.523438 8.804688 26.179688 8.804688 26.539062 C 8.875 26.976562 9.023438 27.335938 9.3125 27.632812 L 12.367188 30.6875 C 12.65625 30.976562 13.023438 31.125 13.460938 31.195312 C 13.898438 31.265625 14.476562 31.265625 15.203125 31.265625 L 14.328125 39.046875 C 14.257812 39.625 14.765625 40.0625 15.34375 39.992188 C 17.742188 39.625 23.34375 38.171875 25.453125 33.304688 C 26.179688 31.5625 26.328125 29.59375 26.179688 27.5625 C 27.414062 26.6875 28.648438 25.671875 29.960938 24.367188 C 36.5 17.890625 41.078125 6.039062 39.765625 0.515625 Z M 24.0625 15.929688 C 22.460938 14.328125 22.460938 11.710938 24.0625 10.117188 C 25.664062 8.523438 28.28125 8.515625 29.875 10.117188 C 31.46875 11.71875 31.476562 14.335938 29.875 15.929688 C 28.28125 17.523438 25.734375 17.523438 24.0625 15.929688 Z M 24.0625 15.929688 "/>
<path style=" stroke:none;fill-rule:nonzero;fill:url(#linear1);" d="M 12.140625 31.992188 C 11.703125 32.429688 11.046875 32.648438 10.25 32.789062 C 8.507812 33.078125 6.976562 31.554688 7.265625 29.804688 C 7.414062 29.007812 7.632812 28.28125 7.992188 27.914062 C 8.210938 27.695312 8.0625 27.335938 7.703125 27.335938 C 6.757812 27.484375 5.8125 27.84375 5.085938 28.570312 C 3.492188 30.320312 3.273438 36.71875 3.273438 36.71875 C 3.273438 36.71875 9.671875 36.570312 11.414062 34.828125 C 12.140625 34.101562 12.578125 33.15625 12.648438 32.210938 C 12.726562 31.921875 12.359375 31.773438 12.140625 31.992188 Z M 12.140625 31.992188 "/>
</g>
</svg>
