<?xml version="1.0" encoding="UTF-8"?>
<svg xmlns="http://www.w3.org/2000/svg" xmlns:xlink="http://www.w3.org/1999/xlink" width="40px" height="40px" viewBox="0 0 40 40" version="1.1">
<defs>
<linearGradient id="linear0" gradientUnits="userSpaceOnUse" x1="0.119649" y1="46.021687" x2="46.154816" y2="-0.151731" gradientTransform="matrix(0.867209,0,0,0.867209,0.000433604,0)">
<stop offset="0" style="stop-color:rgb(98.431373%,0%,0%);stop-opacity:1;"/>
<stop offset="1" style="stop-color:rgb(21.960784%,100%,95.294118%);stop-opacity:1;"/>
</linearGradient>
</defs>
<g id="surface1">
<path style=" stroke:none;fill-rule:nonzero;fill:url(#linear0);" d="M 32.71875 0.0546875 L 7.28125 0.0546875 C 3.261719 0.0546875 0 3.316406 0 7.335938 L 0 32.664062 C 0 36.683594 3.261719 39.945312 7.28125 39.945312 L 32.71875 39.945312 C 36.738281 39.945312 40 36.683594 40 32.664062 L 40 7.335938 C 40 3.316406 36.738281 0.0546875 32.71875 0.0546875 Z M 32.960938 16.597656 L 19.203125 30.355469 C 18.617188 30.941406 17.828125 31.269531 17 31.269531 C 16.175781 31.269531 15.382812 30.941406 14.800781 30.355469 L 7.980469 23.539062 C 6.765625 22.320312 6.765625 20.351562 7.980469 19.136719 C 8.566406 18.550781 9.355469 18.222656 10.183594 18.222656 C 11.007812 18.222656 11.796875 18.550781 12.382812 19.136719 L 16.445312 23.199219 C 16.59375 23.347656 16.792969 23.429688 17.003906 23.429688 C 17.210938 23.429688 17.410156 23.347656 17.558594 23.199219 L 28.558594 12.199219 C 29.144531 11.613281 29.933594 11.285156 30.761719 11.285156 C 31.585938 11.285156 32.378906 11.613281 32.960938 12.199219 C 34.175781 13.414062 34.175781 15.382812 32.960938 16.597656 Z M 32.960938 16.597656 "/>
</g>
</svg>
