<?xml version="1.0" encoding="UTF-8"?>
<svg xmlns="http://www.w3.org/2000/svg" xmlns:xlink="http://www.w3.org/1999/xlink" width="15px" height="15px" viewBox="0 0 15 15" version="1.1">
<defs>
<linearGradient id="linear0" gradientUnits="userSpaceOnUse" x1="0.119649" y1="46.021687" x2="46.154816" y2="-0.151731" gradientTransform="matrix(0.325203,0,0,0.325203,0.000162602,0)">
<stop offset="0" style="stop-color:rgb(98.431373%,0%,0%);stop-opacity:1;"/>
<stop offset="1" style="stop-color:rgb(21.960784%,100%,95.294118%);stop-opacity:1;"/>
</linearGradient>
</defs>
<g id="surface1">
<path style=" stroke:none;fill-rule:nonzero;fill:url(#linear0);" d="M 12.269531 0.0195312 L 2.730469 0.0195312 C 1.222656 0.0195312 0 1.242188 0 2.75 L 0 12.25 C 0 13.757812 1.222656 14.980469 2.730469 14.980469 L 12.269531 14.980469 C 13.777344 14.980469 15 13.757812 15 12.25 L 15 2.75 C 15 1.242188 13.777344 0.0195312 12.269531 0.0195312 Z M 12.359375 6.222656 L 7.199219 11.382812 C 6.980469 11.601562 6.683594 11.726562 6.375 11.726562 C 6.066406 11.726562 5.769531 11.601562 5.550781 11.382812 L 2.992188 8.828125 C 2.539062 8.371094 2.539062 7.632812 2.992188 7.175781 C 3.210938 6.957031 3.507812 6.832031 3.820312 6.832031 C 4.128906 6.832031 4.425781 6.957031 4.644531 7.175781 L 6.167969 8.699219 C 6.222656 8.753906 6.296875 8.785156 6.375 8.785156 C 6.453125 8.785156 6.527344 8.753906 6.585938 8.699219 L 10.710938 4.574219 C 10.929688 4.355469 11.226562 4.230469 11.535156 4.230469 C 11.84375 4.230469 12.140625 4.355469 12.359375 4.574219 C 12.816406 5.03125 12.816406 5.769531 12.359375 6.222656 Z M 12.359375 6.222656 "/>
</g>
</svg>
