<?xml version="1.0" encoding="UTF-8"?>
<svg xmlns="http://www.w3.org/2000/svg" xmlns:xlink="http://www.w3.org/1999/xlink" width="20px" height="20px" viewBox="0 0 20 20" version="1.1">
<defs>
<linearGradient id="linear0" gradientUnits="userSpaceOnUse" x1="0.119649" y1="46.021687" x2="46.154816" y2="-0.151731" gradientTransform="matrix(0.433604,0,0,0.433604,0.000216802,0)">
<stop offset="0" style="stop-color:rgb(98.431373%,0%,0%);stop-opacity:1;"/>
<stop offset="1" style="stop-color:rgb(21.960784%,100%,95.294118%);stop-opacity:1;"/>
</linearGradient>
</defs>
<g id="surface1">
<path style=" stroke:none;fill-rule:nonzero;fill:url(#linear0);" d="M 16.359375 0.0273438 L 3.640625 0.0273438 C 1.628906 0.0273438 0 1.65625 0 3.667969 L 0 16.332031 C 0 18.34375 1.628906 19.972656 3.640625 19.972656 L 16.359375 19.972656 C 18.371094 19.972656 20 18.34375 20 16.332031 L 20 3.667969 C 20 1.65625 18.371094 0.0273438 16.359375 0.0273438 Z M 16.480469 8.300781 L 9.601562 15.179688 C 9.308594 15.46875 8.914062 15.632812 8.5 15.632812 C 8.085938 15.632812 7.691406 15.46875 7.398438 15.179688 L 3.992188 11.769531 C 3.382812 11.160156 3.382812 10.175781 3.992188 9.566406 C 4.28125 9.277344 4.679688 9.113281 5.089844 9.113281 C 5.503906 9.113281 5.898438 9.277344 6.191406 9.566406 L 8.222656 11.601562 C 8.296875 11.671875 8.398438 11.714844 8.5 11.714844 C 8.605469 11.714844 8.707031 11.671875 8.777344 11.601562 L 14.28125 6.097656 C 14.570312 5.808594 14.96875 5.640625 15.378906 5.640625 C 15.792969 5.644531 16.1875 5.808594 16.480469 6.097656 C 17.089844 6.707031 17.089844 7.691406 16.480469 8.300781 Z M 16.480469 8.300781 "/>
</g>
</svg>
