<?xml version="1.0" encoding="UTF-8"?>
<svg xmlns="http://www.w3.org/2000/svg" xmlns:xlink="http://www.w3.org/1999/xlink" width="15px" height="15px" viewBox="0 0 15 15" version="1.1">
<defs>
<linearGradient id="linear0" gradientUnits="userSpaceOnUse" x1="0.8" y1="0.2" x2="0.2" y2="0.8" gradientTransform="matrix(13.125,0,0,13.679688,1.25,0.660156)">
<stop offset="0" style="stop-color:rgb(38.823529%,31.372549%,98.431373%);stop-opacity:1;"/>
<stop offset="0.5" style="stop-color:rgb(23.921569%,56.078431%,100%);stop-opacity:1;"/>
<stop offset="1" style="stop-color:rgb(60.392157%,84.705882%,97.254902%);stop-opacity:1;"/>
</linearGradient>
</defs>
<g id="surface1">
<path style=" stroke:none;fill-rule:nonzero;fill:url(#linear0);" d="M 8.15625 9.695312 L 10.082031 9.695312 C 10.214844 9.695312 10.324219 9.804688 10.324219 9.941406 L 10.324219 11.078125 C 10.800781 11.195312 11.136719 11.625 11.132812 12.117188 C 11.132812 12.707031 10.664062 13.183594 10.082031 13.183594 C 9.5 13.183594 9.027344 12.707031 9.027344 12.117188 C 9.027344 11.613281 9.375 11.191406 9.839844 11.078125 L 9.839844 10.1875 L 8.15625 10.1875 L 8.15625 13.101562 C 8.15625 13.1875 8.113281 13.269531 8.039062 13.3125 L 6.359375 14.339844 C 6.28125 14.386719 6.183594 14.386719 6.105469 14.339844 L 3.027344 12.410156 C 2.953125 12.363281 2.910156 12.285156 2.910156 12.199219 L 2.910156 10.1875 L 1.371094 9.292969 C 1.300781 9.253906 1.253906 9.179688 1.25 9.097656 L 1.25 5.878906 C 1.25 5.792969 1.296875 5.710938 1.371094 5.667969 L 2.910156 4.753906 L 2.910156 2.78125 C 2.910156 2.699219 2.949219 2.625 3.015625 2.578125 L 3.027344 2.570312 L 6.105469 0.660156 C 6.183594 0.613281 6.28125 0.613281 6.359375 0.660156 L 8.042969 1.707031 C 8.113281 1.753906 8.15625 1.832031 8.15625 1.917969 L 8.15625 4.75 L 10.566406 4.75 L 10.566406 3.550781 C 10.089844 3.433594 9.753906 3.003906 9.757812 2.511719 C 9.757812 1.921875 10.230469 1.445312 10.8125 1.445312 C 11.390625 1.445312 11.863281 1.921875 11.863281 2.511719 C 11.863281 3.015625 11.519531 3.441406 11.054688 3.550781 L 11.054688 4.996094 C 11.054688 5.0625 11.027344 5.125 10.984375 5.167969 C 10.9375 5.214844 10.875 5.242188 10.8125 5.242188 L 8.15625 5.242188 L 8.15625 6.371094 L 12.296875 6.371094 C 12.40625 5.894531 12.832031 5.554688 13.324219 5.550781 C 13.902344 5.550781 14.375 6.027344 14.375 6.617188 C 14.375 7.207031 13.90625 7.683594 13.324219 7.683594 C 12.832031 7.683594 12.40625 7.34375 12.296875 6.863281 L 8.15625 6.863281 L 8.15625 8.074219 L 11.25 8.074219 L 11.824219 8.8125 C 11.984375 8.71875 12.164062 8.667969 12.347656 8.671875 C 12.929688 8.671875 13.402344 9.148438 13.402344 9.738281 C 13.402344 10.328125 12.929688 10.804688 12.347656 10.804688 C 11.765625 10.804688 11.296875 10.328125 11.296875 9.738281 C 11.296875 9.519531 11.359375 9.320312 11.46875 9.152344 L 11.015625 8.566406 L 8.15625 8.566406 Z M 6.234375 1.160156 L 4.957031 1.953125 L 4.957031 3.804688 L 4.46875 3.804688 L 4.46875 2.253906 L 3.398438 2.917969 L 3.398438 4.757812 L 4.714844 5.609375 L 6.070312 4.757812 L 6.070312 3.332031 L 6.554688 3.332031 L 6.554688 4.894531 C 6.554688 4.980469 6.511719 5.058594 6.441406 5.101562 L 4.976562 6.023438 L 4.976562 7.324219 L 5.867188 7.953125 L 5.585938 8.359375 L 4.707031 7.734375 L 3.75 8.363281 L 3.488281 7.949219 L 4.492188 7.292969 L 4.492188 6.046875 L 3.148438 5.179688 L 1.734375 6.019531 L 1.734375 7.066406 L 2.96875 6.324219 L 3.21875 6.746094 L 1.734375 7.640625 L 1.734375 8.9375 L 3.089844 9.722656 L 4.507812 8.867188 L 4.757812 9.292969 L 3.398438 10.109375 L 3.398438 12.0625 L 4.570312 12.796875 L 6.046875 11.90625 L 6.296875 12.328125 L 5.035156 13.089844 L 6.234375 13.839844 L 7.671875 12.964844 L 7.671875 9.351562 L 4.695312 11.160156 L 4.445312 10.738281 L 7.671875 8.777344 L 7.671875 2.054688 Z M 10.082031 11.542969 C 9.929688 11.542969 9.785156 11.605469 9.679688 11.714844 C 9.570312 11.820312 9.511719 11.96875 9.515625 12.117188 C 9.515625 12.4375 9.765625 12.691406 10.082031 12.691406 C 10.394531 12.691406 10.648438 12.433594 10.648438 12.117188 C 10.648438 11.964844 10.589844 11.820312 10.484375 11.714844 C 10.378906 11.605469 10.234375 11.542969 10.082031 11.542969 Z M 12.351562 9.164062 C 12.199219 9.164062 12.054688 9.222656 11.945312 9.332031 C 11.839844 9.441406 11.78125 9.585938 11.78125 9.738281 C 11.78125 10.054688 12.035156 10.3125 12.347656 10.3125 C 12.5 10.3125 12.644531 10.25 12.753906 10.144531 C 12.859375 10.035156 12.917969 9.890625 12.917969 9.738281 C 12.917969 9.585938 12.859375 9.441406 12.753906 9.332031 C 12.644531 9.222656 12.5 9.164062 12.347656 9.164062 Z M 13.320312 6.042969 C 13.171875 6.042969 13.023438 6.105469 12.917969 6.214844 C 12.8125 6.320312 12.753906 6.46875 12.753906 6.617188 C 12.753906 6.9375 13.007812 7.191406 13.320312 7.191406 C 13.636719 7.191406 13.890625 6.933594 13.890625 6.617188 C 13.890625 6.464844 13.832031 6.320312 13.722656 6.214844 C 13.617188 6.105469 13.472656 6.042969 13.320312 6.042969 Z M 10.808594 1.9375 C 10.660156 1.9375 10.515625 2 10.40625 2.109375 C 10.300781 2.214844 10.242188 2.359375 10.242188 2.511719 C 10.242188 2.828125 10.496094 3.085938 10.808594 3.085938 C 10.960938 3.085938 11.105469 3.027344 11.214844 2.917969 C 11.320312 2.808594 11.378906 2.664062 11.378906 2.511719 C 11.378906 2.359375 11.320312 2.214844 11.214844 2.105469 C 11.105469 2 10.960938 1.9375 10.808594 1.9375 Z M 10.808594 1.9375 "/>
</g>
</svg>
