<?xml version="1.0" encoding="UTF-8"?>
<svg xmlns="http://www.w3.org/2000/svg" xmlns:xlink="http://www.w3.org/1999/xlink" width="15px" height="15px" viewBox="0 0 15 15" version="1.1">
<defs>
<linearGradient id="linear0" gradientUnits="userSpaceOnUse" x1="-1032.172" y1="145.312" x2="-1059.213" y2="65.426" gradientTransform="matrix(0.15625,0,0,-0.15625,167.96875,24.6875)">
<stop offset="0" style="stop-color:rgb(6.666667%,29.019608%,54.509804%);stop-opacity:1;"/>
<stop offset="1" style="stop-color:rgb(2.352941%,41.176471%,73.72549%);stop-opacity:1;"/>
</linearGradient>
<linearGradient id="linear1" gradientUnits="userSpaceOnUse" x1="-1023.725" y1="108.083" x2="-1029.98" y2="105.968" gradientTransform="matrix(0.15625,0,0,-0.15625,167.96875,24.6875)">
<stop offset="0" style="stop-color:rgb(0%,0%,0%);stop-opacity:0.301961;"/>
<stop offset="0.071" style="stop-color:rgb(0%,0%,0%);stop-opacity:0.2;"/>
<stop offset="0.321" style="stop-color:rgb(0%,0%,0%);stop-opacity:0.101961;"/>
<stop offset="0.623" style="stop-color:rgb(0%,0%,0%);stop-opacity:0.0509804;"/>
<stop offset="1" style="stop-color:rgb(0%,0%,0%);stop-opacity:0;"/>
</linearGradient>
<linearGradient id="linear2" gradientUnits="userSpaceOnUse" x1="-1027.165" y1="147.642" x2="-997.482" y2="68.561" gradientTransform="matrix(0.15625,0,0,-0.15625,167.96875,24.6875)">
<stop offset="0" style="stop-color:rgb(23.529412%,79.607843%,95.686275%);stop-opacity:1;"/>
<stop offset="1" style="stop-color:rgb(15.686275%,57.254902%,87.45098%);stop-opacity:1;"/>
</linearGradient>
</defs>
<g id="surface1">
<path style=" stroke:none;fill-rule:nonzero;fill:url(#linear0);" d="M 5.210938 1.023438 L 9.277344 1.023438 L 5.054688 13.535156 C 4.964844 13.800781 4.71875 13.976562 4.441406 13.976562 L 1.273438 13.976562 C 1.066406 13.976562 0.867188 13.875 0.746094 13.707031 C 0.625 13.539062 0.59375 13.320312 0.660156 13.121094 L 4.59375 1.464844 C 4.683594 1.199219 4.929688 1.023438 5.210938 1.023438 Z M 5.210938 1.023438 "/>
<path style=" stroke:none;fill-rule:nonzero;fill:rgb(0%,47.058824%,83.137255%);fill-opacity:1;" d="M 11.121094 9.414062 L 4.667969 9.414062 C 4.546875 9.414062 4.4375 9.492188 4.390625 9.605469 C 4.347656 9.71875 4.375 9.847656 4.464844 9.933594 L 8.609375 13.800781 C 8.730469 13.914062 8.890625 13.976562 9.054688 13.976562 L 12.710938 13.976562 Z M 11.121094 9.414062 "/>
<path style=" stroke:none;fill-rule:nonzero;fill:url(#linear1);" d="M 5.210938 1.023438 C 4.925781 1.019531 4.675781 1.203125 4.59375 1.472656 L 0.664062 13.113281 C 0.59375 13.308594 0.625 13.53125 0.746094 13.703125 C 0.867188 13.875 1.0625 13.976562 1.273438 13.976562 L 4.523438 13.976562 C 4.769531 13.933594 4.972656 13.761719 5.054688 13.523438 L 5.839844 11.214844 L 8.636719 13.824219 C 8.753906 13.921875 8.902344 13.976562 9.054688 13.976562 L 12.695312 13.976562 L 11.097656 9.414062 L 6.445312 9.417969 L 9.292969 1.023438 Z M 5.210938 1.023438 "/>
<path style=" stroke:none;fill-rule:nonzero;fill:url(#linear2);" d="M 10.40625 1.464844 C 10.316406 1.199219 10.070312 1.023438 9.792969 1.023438 L 5.257812 1.023438 C 5.535156 1.023438 5.78125 1.199219 5.871094 1.464844 L 9.804688 13.121094 C 9.871094 13.320312 9.839844 13.539062 9.71875 13.707031 C 9.597656 13.878906 9.402344 13.976562 9.191406 13.976562 L 13.726562 13.976562 C 13.933594 13.976562 14.132812 13.875 14.253906 13.707031 C 14.375 13.539062 14.40625 13.320312 14.339844 13.121094 Z M 10.40625 1.464844 "/>
</g>
</svg>
