<svg version="1.1" xmlns="http://www.w3.org/2000/svg" width="15" height="15" viewBox="0 0 64 64"><path d="M0 0 C21.12 0 42.24 0 64 0 C64 21.12 64 42.24 64 64 C42.88 64 21.76 64 0 64 C0 42.88 0 21.76 0 0 Z " fill="#2080E2" transform="translate(0,0)" /><path d="M0 0 C21.12 0 42.24 0 64 0 C64 21.12 64 42.24 64 64 C42.88 64 21.76 64 0 64 C0 42.88 0 21.76 0 0 Z M9.25292969 14.28320312 C4.89651341 19.53658417 4.87629491 25.33761908 4.9375 31.9375 C4.94487183 33.839552 4.94487183 33.839552 4.95239258 35.7800293 C5.30711277 40.76030074 5.63267113 44.52973863 9.11450195 48.27368164 C11.6628654 50.08733792 14.22465886 51.56242255 17 53 C18.29438859 53.82431872 19.58302259 54.65780878 20.86328125 55.50390625 C22.01028317 56.19467053 23.15995279 56.88102834 24.3125 57.5625 C25.18358398 58.11260742 25.18358398 58.11260742 26.07226562 58.67382812 C27.98781047 59.85710178 27.98781047 59.85710178 31 61 C34.56739066 59.89306661 37.64076996 58.1379068 40.828125 56.21484375 C41.70984375 55.68439453 42.5915625 55.15394531 43.5 54.60742188 C44.4075 54.05634766 45.315 53.50527344 46.25 52.9375 C47.17296875 52.38255859 48.0959375 51.82761719 49.046875 51.25585938 C53.24995826 48.93164174 53.24995826 48.93164174 57 46 C57.450758 41.44820283 57.51169678 36.88315198 57.625 32.3125 C57.69589844 31.03181641 57.76679687 29.75113281 57.83984375 28.43164062 C58.16905333 21.65626655 58.16905333 21.65626655 55.17626953 15.89892578 C52.85038104 14.33379155 50.55528105 13.14623804 48 12 C46.87851562 11.32453125 45.75703125 10.6490625 44.6015625 9.953125 C43.61929688 9.39109375 42.63703125 8.8290625 41.625 8.25 C38.68502318 6.56350167 35.82090437 4.88060291 33 3 C24.63935658 3 15.51399114 9.14603385 9.25292969 14.28320312 Z " fill="#F8F9FA" transform="translate(0,0)" /><path d="M0 0 C2.8125 1.5625 2.8125 1.5625 5 3 C2.18254412 6.02761576 -0.60656118 8.12991477 -4.1875 10.1875 C-7.27644656 11.84882101 -7.27644656 11.84882101 -10 14 C-10.15582303 15.34015221 -10.25044142 16.68758903 -10.31640625 18.03515625 C-10.35830078 18.84404297 -10.40019531 19.65292969 -10.44335938 20.48632812 C-10.48267578 21.33646484 -10.52199219 22.18660156 -10.5625 23.0625 C-10.60568359 23.91650391 -10.64886719 24.77050781 -10.69335938 25.65039062 C-10.79976702 27.76672037 -10.90041731 29.88333813 -11 32 C-17.64500622 29.60041442 -17.64500622 29.60041442 -20 27 C-21.74128053 21.08488081 -21.96385788 13.86100777 -20 8 C-15.65913421 2.49796013 -6.90980129 -2.52948083 0 0 Z " fill="#F4F8FD" transform="translate(35,14)" /><path d="M0 0 C1.93215888 16.38206506 1.93215888 16.38206506 -1.24365234 20.68505859 C-4.9526371 23.8715543 -10.03045806 27 -15 27 C-16.37355291 10.82259905 -16.37355291 10.82259905 -13.171875 6.57421875 C-10.83206242 5.0750342 -8.58787043 4.0013368 -6 3 C-5.01 2.38125 -4.02 1.7625 -3 1.125 C-1 0 -1 0 0 0 Z " fill="#FBFCFE" transform="translate(48,23)" /><path d="M0 0 C2.5625 0.1875 2.5625 0.1875 4.5625 2.1875 C4.00694444 6.74305556 4.00694444 6.74305556 2.5625 8.1875 C0.0625 8.3125 0.0625 8.3125 -2.4375 8.1875 C-3.4375 7.1875 -3.4375 7.1875 -3.5625 4.1875 C-3.39891479 0.26145498 -3.39891479 0.26145498 0 0 Z " fill="#023493" transform="translate(28.4375,25.8125)" /></svg>
