<?xml version="1.0" encoding="UTF-8"?>
<svg xmlns="http://www.w3.org/2000/svg" width="15px" height="15px" viewBox="0 0 24 24" version="1.1">
    <path d="M21.4954 8.93942C20.9333 7.15711 19.8717 5.54228 18.4346 4.34463C17.7075 3.77365 16.7602 3.54156 15.8567 3.50199C15.856 3.50192 15.8554 3.50192 15.8547 3.50192C15.6836 3.50385 15.5 3.49964 15.335 3.50363C12.8619 3.62727 10.5484 4.79126 8.59542 6.25643C8.57888 6.26884 8.57667 6.29272 8.59057 6.30805C9.39642 7.19668 10.1516 8.12438 10.8848 9.07447C10.8964 9.08944 10.9176 9.09258 10.933 9.08153C12.5094 7.95197 14.1521 6.90534 15.9172 6.09372C15.9344 6.08588 15.9546 6.09308 15.9632 6.10984C16.5238 7.19796 14.6566 8.9636 13.8915 9.60445C12.1822 11.0035 10.2255 12.3687 7.96084 12.551L7.96205 12.5528C7.54879 12.5851 7.13075 12.5358 6.72918 12.4359C5.68541 12.1688 4.8643 11.2799 4.52918 10.274C4.36583 9.7549 4.36762 9.19789 4.46565 8.66563C4.6541 7.70235 5.13532 6.77828 5.80441 5.96352C7.32526 3.95361 10.0512 2.61365 13.1615 2.61365C14.3895 2.61365 15.5576 2.82249 16.6154 3.19896C16.6282 3.16973 16.6242 3.17871 16.6431 3.1355C15.3298 2.44566 13.8517 2.06263 12.3776 2.00217C12.0596 2.00331 11.7328 1.9919 11.4194 2.01422C6.13546 2.28681 1.82373 6.82805 2.00555 12.1478C2.00569 12.1528 2.0074 12.1575 2.0094 12.1621C2.0099 12.1632 2.01004 12.1642 2.00954 12.1652C2.00747 12.1693 2.0074 12.174 2.00754 12.1786C2.0094 12.23 2.01097 12.2853 2.01446 12.3334C2.01453 12.3341 2.01453 12.3349 2.01453 12.3358C2.01425 12.3695 2.01646 12.4088 2.01753 12.4383C2.02245 12.5215 2.02701 12.6077 2.03535 12.6886C2.03785 12.7079 2.032 12.7299 2.04134 12.7472C2.04156 12.7479 2.03941 12.7495 2.03835 12.7507C2.0417 12.7701 2.03685 12.7925 2.04733 12.8094C2.0474 12.8097 2.0474 12.8099 2.04733 12.8103C2.04626 12.8144 2.04555 12.8186 2.04576 12.8228C2.19507 15.4875 3.6345 17.7751 6.41425 18.191C7.07022 18.278 7.73696 18.2739 8.39685 18.2364C11.9336 17.9776 15.6344 16.1099 17.8749 13.3487C18.8789 12.0782 19.6195 10.5336 19.7094 8.89964C19.7095 8.899 19.7096 8.89828 19.7096 8.89757C19.7235 8.78905 19.7163 8.67789 19.7208 8.56852C19.7209 8.56481 19.7215 8.56117 19.7229 8.55775C19.7278 8.54577 19.735 8.55682 19.7417 8.56231C19.7621 8.58007 19.7846 8.5959 19.8025 8.61586C20.9308 9.86178 21.6354 11.4623 21.7969 13.1328C21.8455 13.1334 21.8291 13.1332 21.8776 13.1339C22.0493 11.7292 21.9173 10.2904 21.4954 8.93942Z"
          fill="var(--text-secondary, #FFFFFF8F)"></path>
    <path d="M11.2215 20.6396C8.68196 20.6396 6.33251 19.8507 4.41821 18.5123C6.24852 20.6275 8.95254 21.9658 11.9692 21.9658C16.6702 21.9658 20.6114 18.7157 21.6703 14.3402C19.767 18.0726 15.8035 20.6396 11.2215 20.6396Z"
          fill="var(--text-secondary, #FFFFFF8F)"></path>
</svg>