<?xml version="1.0" encoding="UTF-8"?>
<svg xmlns="http://www.w3.org/2000/svg" xmlns:xlink="http://www.w3.org/1999/xlink" width="15px" height="15px" viewBox="0 0 15 14" version="1.1">
<g id="surface1">
<path style=" stroke:none;fill-rule:evenodd;fill:rgb(14.117648%,16.078432%,18.431373%);fill-opacity:1;" d="M 7.476562 0 C 3.34375 0 0 3.207031 0 7.175781 C 0 10.351562 2.140625 13.035156 5.113281 13.988281 C 5.484375 14.058594 5.621094 13.832031 5.621094 13.640625 C 5.621094 13.476562 5.609375 12.90625 5.609375 12.3125 C 3.527344 12.738281 3.09375 11.457031 3.09375 11.457031 C 2.761719 10.625 2.265625 10.410156 2.265625 10.410156 C 1.585938 9.96875 2.316406 9.96875 2.316406 9.96875 C 3.070312 10.019531 3.464844 10.707031 3.464844 10.707031 C 4.136719 11.800781 5.210938 11.492188 5.644531 11.300781 C 5.707031 10.835938 5.90625 10.515625 6.117188 10.339844 C 4.457031 10.171875 2.710938 9.554688 2.710938 6.796875 C 2.710938 6.011719 3.007812 5.371094 3.480469 4.871094 C 3.40625 4.695312 3.144531 3.957031 3.554688 2.972656 C 3.554688 2.972656 4.183594 2.78125 5.609375 3.707031 C 6.21875 3.550781 6.847656 3.46875 7.476562 3.46875 C 8.109375 3.46875 8.753906 3.554688 9.347656 3.707031 C 10.769531 2.78125 11.402344 2.972656 11.402344 2.972656 C 11.8125 3.957031 11.550781 4.695312 11.476562 4.871094 C 11.960938 5.371094 12.242188 6.011719 12.242188 6.796875 C 12.242188 9.554688 10.5 10.160156 8.828125 10.339844 C 9.097656 10.5625 9.335938 10.992188 9.335938 11.667969 C 9.335938 12.632812 9.324219 13.402344 9.324219 13.640625 C 9.324219 13.832031 9.457031 14.058594 9.828125 13.988281 C 12.800781 13.035156 14.941406 10.351562 14.941406 7.175781 C 14.957031 3.207031 11.601562 0 7.476562 0 Z M 7.476562 0 "/>
</g>
</svg>
