<?xml version="1.0" encoding="UTF-8"?>
<svg xmlns="http://www.w3.org/2000/svg" xmlns:xlink="http://www.w3.org/1999/xlink" width="16px" height="16px" viewBox="0 0 16 16" version="1.1">
<defs>
<linearGradient id="linear0" gradientUnits="userSpaceOnUse" x1="0.104917" y1="256.00882" x2="511.98117" y2="256.00882" gradientTransform="matrix(0.03125,0,0,0.03125,-0.00327862,-0.000704528)">
<stop offset="0" style="stop-color:rgb(100%,40%,0%);stop-opacity:1;"/>
<stop offset="1" style="stop-color:rgb(9.019608%,0%,86.27451%);stop-opacity:1;"/>
</linearGradient>
<linearGradient id="linear1" gradientUnits="userSpaceOnUse" x1="0.104917" y1="256.00882" x2="511.98117" y2="256.00882" gradientTransform="matrix(0.03125,0,0,0.03125,-0.00327862,-0.000704528)">
<stop offset="0" style="stop-color:rgb(100%,40%,0%);stop-opacity:1;"/>
<stop offset="1" style="stop-color:rgb(9.019608%,0%,86.27451%);stop-opacity:1;"/>
</linearGradient>
</defs>
<g id="surface1">
<path style=" stroke:none;fill-rule:nonzero;fill:url(#linear0);" d="M 15.90625 0.207031 C 15.878906 0.144531 15.847656 0.0898438 15.789062 0.0898438 C 13.695312 -0.433594 8.867188 1.398438 6.253906 4.015625 C 5.726562 4.539062 5.320312 5.035156 4.976562 5.527344 C 4.160156 5.441406 3.347656 5.527344 2.679688 5.816406 C 0.730469 6.660156 0.148438 8.898438 0.00390625 9.863281 C -0.0234375 10.09375 0.148438 10.300781 0.382812 10.269531 L 3.492188 9.917969 C 3.492188 10.207031 3.523438 10.472656 3.523438 10.613281 C 3.550781 10.789062 3.609375 10.933594 3.726562 11.050781 L 4.945312 12.273438 C 5.0625 12.390625 5.210938 12.449219 5.382812 12.476562 C 5.558594 12.503906 5.789062 12.503906 6.082031 12.503906 L 5.730469 15.617188 C 5.703125 15.847656 5.90625 16.023438 6.136719 15.996094 C 7.097656 15.847656 9.335938 15.269531 10.179688 13.320312 C 10.472656 12.625 10.53125 11.835938 10.472656 11.023438 C 10.964844 10.675781 11.460938 10.269531 11.984375 9.746094 C 14.601562 7.15625 16.429688 2.414062 15.90625 0.207031 Z M 9.625 6.371094 C 8.984375 5.730469 8.984375 4.683594 9.625 4.046875 C 10.265625 3.410156 11.3125 3.40625 11.949219 4.046875 C 12.585938 4.6875 12.589844 5.734375 11.949219 6.371094 C 11.3125 7.007812 10.292969 7.007812 9.625 6.371094 Z M 9.625 6.371094 "/>
<path style=" stroke:none;fill-rule:nonzero;fill:url(#linear1);" d="M 4.855469 12.796875 C 4.679688 12.972656 4.417969 13.058594 4.101562 13.113281 C 3.402344 13.230469 2.789062 12.621094 2.90625 11.921875 C 2.964844 11.601562 3.054688 11.3125 3.195312 11.164062 C 3.285156 11.078125 3.226562 10.933594 3.082031 10.933594 C 2.703125 10.992188 2.324219 11.136719 2.035156 11.425781 C 1.398438 12.128906 1.308594 14.6875 1.308594 14.6875 C 1.308594 14.6875 3.867188 14.628906 4.566406 13.929688 C 4.855469 13.640625 5.03125 13.261719 5.058594 12.882812 C 5.089844 12.769531 4.945312 12.707031 4.855469 12.796875 Z M 4.855469 12.796875 "/>
</g>
</svg>
