<?xml version="1.0" encoding="UTF-8"?>
<svg xmlns="http://www.w3.org/2000/svg" xmlns:xlink="http://www.w3.org/1999/xlink" width="15px" height="15px" viewBox="0 0 15 15" version="1.1">
<g id="surface1">
<path style=" stroke:none;fill-rule:nonzero;fill:rgb(100%,100%,100%);fill-opacity:1;" d="M 14.914062 10.753906 C 14.875 10.609375 14.8125 10.46875 14.726562 10.34375 C 14.746094 10.277344 14.757812 10.207031 14.769531 10.140625 C 14.828125 9.707031 14.675781 9.308594 14.394531 9.003906 C 14.242188 8.835938 14.078125 8.726562 13.902344 8.65625 C 14.015625 8.167969 14.074219 7.667969 14.074219 7.167969 C 14.074219 6.9375 14.0625 6.710938 14.039062 6.492188 C 14.027344 6.378906 14.015625 6.269531 14 6.160156 C 13.949219 5.835938 13.875 5.515625 13.777344 5.203125 C 13.714844 4.996094 13.640625 4.792969 13.558594 4.597656 C 13.429688 4.300781 13.285156 4.015625 13.117188 3.742188 C 13.011719 3.5625 12.890625 3.386719 12.761719 3.21875 C 12.699219 3.132812 12.636719 3.050781 12.566406 2.96875 C 12.367188 2.722656 12.148438 2.492188 11.914062 2.28125 C 11.835938 2.207031 11.753906 2.140625 11.671875 2.074219 C 11.589844 2.003906 11.507812 1.941406 11.425781 1.875 C 11.253906 1.75 11.078125 1.632812 10.898438 1.519531 C 9.898438 0.914062 8.726562 0.566406 7.476562 0.566406 C 3.832031 0.566406 0.875 3.519531 0.875 7.167969 C 0.875 7.675781 0.933594 8.179688 1.050781 8.675781 C 0.894531 8.742188 0.746094 8.851562 0.605469 9.003906 C 0.324219 9.308594 0.171875 9.703125 0.230469 10.136719 C 0.242188 10.207031 0.253906 10.273438 0.273438 10.339844 C 0.1875 10.46875 0.125 10.609375 0.0859375 10.753906 C 0 11.085938 0.0273438 11.382812 0.140625 11.644531 C 0.0195312 11.984375 0.0507812 12.347656 0.207031 12.664062 C 0.320312 12.894531 0.480469 13.074219 0.683594 13.234375 C 0.921875 13.425781 1.21875 13.585938 1.582031 13.738281 C 2.011719 13.921875 2.535156 14.097656 2.773438 14.160156 C 3.390625 14.320312 3.980469 14.417969 4.582031 14.425781 C 5.433594 14.433594 6.167969 14.230469 6.695312 13.71875 C 6.953125 13.75 7.214844 13.765625 7.476562 13.765625 C 7.75 13.765625 8.027344 13.746094 8.296875 13.714844 C 8.824219 14.230469 9.5625 14.433594 10.417969 14.425781 C 11.019531 14.421875 11.609375 14.320312 12.222656 14.160156 C 12.464844 14.097656 12.988281 13.925781 13.417969 13.742188 C 13.777344 13.585938 14.078125 13.425781 14.316406 13.234375 C 14.515625 13.074219 14.679688 12.898438 14.792969 12.664062 C 14.953125 12.351562 14.980469 11.984375 14.863281 11.644531 C 14.972656 11.382812 15 11.085938 14.914062 10.753906 Z M 14.300781 11.621094 C 14.421875 11.851562 14.429688 12.113281 14.324219 12.355469 C 14.160156 12.71875 13.757812 13.007812 12.976562 13.320312 C 12.492188 13.511719 12.046875 13.636719 12.042969 13.636719 C 11.398438 13.804688 10.816406 13.886719 10.3125 13.886719 C 9.480469 13.886719 8.859375 13.65625 8.464844 13.203125 C 7.800781 13.316406 7.121094 13.320312 6.453125 13.214844 C 6.0625 13.660156 5.445312 13.886719 4.617188 13.886719 C 4.113281 13.886719 3.53125 13.804688 2.890625 13.636719 C 2.886719 13.636719 2.441406 13.511719 1.953125 13.320312 C 1.171875 13.007812 0.769531 12.71875 0.605469 12.355469 C 0.5 12.113281 0.507812 11.851562 0.628906 11.621094 C 0.640625 11.601562 0.652344 11.582031 0.664062 11.558594 C 0.519531 11.339844 0.472656 11.066406 0.539062 10.808594 C 0.589844 10.628906 0.6875 10.476562 0.824219 10.367188 C 0.757812 10.257812 0.714844 10.140625 0.695312 10.015625 C 0.660156 9.746094 0.746094 9.480469 0.949219 9.257812 C 1.105469 9.089844 1.328125 8.996094 1.570312 8.996094 L 1.578125 8.996094 C 1.394531 8.402344 1.300781 7.785156 1.300781 7.167969 C 1.300781 3.785156 4.042969 1.039062 7.425781 1.039062 C 10.808594 1.039062 13.550781 3.78125 13.550781 7.167969 C 13.550781 7.789062 13.457031 8.40625 13.273438 9 C 13.300781 8.996094 13.332031 8.996094 13.359375 8.996094 C 13.605469 8.996094 13.824219 9.089844 13.980469 9.261719 C 14.183594 9.480469 14.273438 9.746094 14.234375 10.015625 C 14.214844 10.140625 14.171875 10.257812 14.109375 10.367188 C 14.242188 10.476562 14.34375 10.628906 14.390625 10.8125 C 14.457031 11.066406 14.414062 11.339844 14.265625 11.558594 C 14.277344 11.582031 14.289062 11.601562 14.300781 11.621094 Z M 14.300781 11.621094 "/>
<path style=" stroke:none;fill-rule:nonzero;fill:rgb(100%,61.56863%,0%);fill-opacity:1;" d="M 14.265625 11.558594 C 14.414062 11.339844 14.457031 11.066406 14.390625 10.8125 C 14.34375 10.628906 14.242188 10.476562 14.109375 10.367188 C 14.171875 10.257812 14.214844 10.140625 14.234375 10.015625 C 14.273438 9.746094 14.183594 9.480469 13.980469 9.261719 C 13.824219 9.089844 13.605469 8.996094 13.359375 8.996094 C 13.332031 8.996094 13.300781 8.996094 13.273438 9 C 13.457031 8.40625 13.550781 7.789062 13.550781 7.167969 C 13.550781 3.785156 10.808594 1.039062 7.425781 1.039062 C 4.042969 1.039062 1.300781 3.78125 1.300781 7.167969 C 1.300781 7.785156 1.394531 8.402344 1.578125 8.996094 L 1.570312 8.996094 C 1.328125 8.996094 1.105469 9.089844 0.949219 9.257812 C 0.746094 9.480469 0.65625 9.746094 0.695312 10.015625 C 0.714844 10.140625 0.757812 10.257812 0.824219 10.367188 C 0.6875 10.476562 0.589844 10.628906 0.539062 10.808594 C 0.472656 11.066406 0.519531 11.339844 0.664062 11.558594 C 0.652344 11.582031 0.640625 11.601562 0.628906 11.621094 C 0.507812 11.851562 0.5 12.113281 0.605469 12.355469 C 0.769531 12.71875 1.171875 13.007812 1.953125 13.320312 C 2.441406 13.511719 2.886719 13.636719 2.890625 13.636719 C 3.53125 13.804688 4.113281 13.886719 4.617188 13.886719 C 5.445312 13.886719 6.0625 13.660156 6.453125 13.214844 C 7.121094 13.320312 7.800781 13.316406 8.464844 13.203125 C 8.859375 13.65625 9.480469 13.886719 10.3125 13.886719 C 10.816406 13.886719 11.398438 13.804688 12.042969 13.636719 C 12.046875 13.636719 12.492188 13.511719 12.976562 13.320312 C 13.757812 13.007812 14.160156 12.71875 14.324219 12.355469 C 14.429688 12.113281 14.421875 11.851562 14.300781 11.621094 C 14.289062 11.601562 14.277344 11.582031 14.265625 11.558594 Z M 6.171875 12.515625 C 6.140625 12.574219 6.101562 12.632812 6.0625 12.6875 C 5.960938 12.839844 5.828125 12.953125 5.671875 13.035156 C 5.375 13.199219 5 13.253906 4.617188 13.253906 C 4.011719 13.253906 3.394531 13.113281 3.046875 13.023438 C 3.03125 13.019531 0.921875 12.425781 1.1875 11.917969 C 1.234375 11.832031 1.308594 11.796875 1.402344 11.796875 C 1.777344 11.796875 2.460938 12.359375 2.753906 12.359375 C 2.820312 12.359375 2.867188 12.328125 2.886719 12.261719 C 3.011719 11.8125 0.980469 11.621094 1.152344 10.972656 C 1.183594 10.855469 1.265625 10.808594 1.378906 10.808594 C 1.875 10.808594 2.992188 11.683594 3.226562 11.683594 C 3.242188 11.683594 3.253906 11.679688 3.261719 11.667969 C 3.265625 11.664062 3.265625 11.664062 3.265625 11.660156 C 3.375 11.480469 3.3125 11.351562 2.5625 10.890625 L 2.488281 10.847656 C 1.664062 10.347656 1.085938 10.046875 1.414062 9.6875 C 1.453125 9.644531 1.507812 9.628906 1.570312 9.628906 C 1.648438 9.628906 1.742188 9.652344 1.847656 9.695312 C 2.28125 9.878906 2.886719 10.382812 3.136719 10.601562 C 3.179688 10.636719 3.21875 10.671875 3.257812 10.707031 C 3.257812 10.707031 3.578125 11.039062 3.769531 11.039062 C 3.8125 11.039062 3.851562 11.019531 3.878906 10.976562 C 4.015625 10.746094 2.605469 9.675781 2.523438 9.234375 C 2.472656 8.9375 2.5625 8.785156 2.734375 8.785156 C 2.8125 8.785156 2.910156 8.820312 3.019531 8.890625 C 3.359375 9.101562 4.007812 10.222656 4.246094 10.65625 C 4.328125 10.800781 4.460938 10.863281 4.585938 10.863281 C 4.828125 10.863281 5.019531 10.621094 4.609375 10.3125 C 3.988281 9.851562 4.207031 9.09375 4.5 9.046875 C 4.515625 9.042969 4.527344 9.042969 4.539062 9.042969 C 4.808594 9.042969 4.925781 9.507812 4.925781 9.507812 C 4.925781 9.507812 5.273438 10.378906 5.871094 10.976562 C 6.414062 11.515625 6.488281 11.960938 6.171875 12.515625 Z M 8.101562 12.617188 L 8.070312 12.621094 L 8.019531 12.628906 C 7.992188 12.628906 7.964844 12.632812 7.9375 12.636719 L 7.910156 12.636719 L 7.882812 12.640625 L 7.847656 12.644531 L 7.808594 12.644531 L 7.769531 12.648438 L 7.761719 12.648438 C 7.75 12.648438 7.742188 12.648438 7.730469 12.652344 L 7.71875 12.652344 C 7.707031 12.652344 7.695312 12.652344 7.683594 12.652344 L 7.640625 12.65625 L 7.5625 12.65625 C 7.554688 12.65625 7.546875 12.65625 7.539062 12.65625 L 7.527344 12.65625 C 7.519531 12.65625 7.511719 12.65625 7.503906 12.65625 L 7.472656 12.660156 L 7.425781 12.660156 C 7.390625 12.660156 7.355469 12.65625 7.320312 12.65625 L 7.289062 12.65625 C 7.28125 12.65625 7.273438 12.65625 7.265625 12.65625 L 7.234375 12.65625 L 7.199219 12.652344 L 7.15625 12.652344 L 7.121094 12.648438 C 7.113281 12.648438 7.105469 12.648438 7.09375 12.648438 L 7.074219 12.648438 C 7.046875 12.644531 7.023438 12.644531 6.996094 12.640625 L 6.96875 12.640625 C 6.957031 12.636719 6.945312 12.636719 6.933594 12.636719 C 6.917969 12.636719 6.90625 12.632812 6.894531 12.632812 C 6.871094 12.628906 6.847656 12.628906 6.824219 12.625 C 7.15625 11.886719 6.988281 11.195312 6.316406 10.527344 C 5.878906 10.089844 5.585938 9.441406 5.527344 9.300781 C 5.402344 8.878906 5.078125 8.410156 4.539062 8.410156 C 4.496094 8.410156 4.449219 8.414062 4.402344 8.421875 C 4.167969 8.460938 3.960938 8.59375 3.8125 8.800781 C 3.65625 8.601562 3.5 8.445312 3.359375 8.355469 C 3.148438 8.222656 2.9375 8.152344 2.734375 8.152344 C 2.476562 8.152344 2.25 8.257812 2.089844 8.449219 L 2.085938 8.453125 C 2.082031 8.441406 2.078125 8.429688 2.078125 8.417969 L 2.078125 8.414062 C 2.046875 8.285156 2.019531 8.15625 2 8.023438 C 2 8.023438 2 8.019531 2 8.019531 C 1.996094 8.011719 1.996094 8 1.996094 7.992188 C 1.992188 7.960938 1.984375 7.929688 1.980469 7.902344 C 1.980469 7.890625 1.980469 7.875 1.976562 7.863281 L 1.972656 7.820312 C 1.96875 7.808594 1.96875 7.796875 1.96875 7.785156 L 1.96875 7.78125 C 1.960938 7.726562 1.957031 7.675781 1.953125 7.625 L 1.949219 7.601562 L 1.949219 7.570312 C 1.945312 7.558594 1.945312 7.550781 1.945312 7.539062 C 1.945312 7.539062 1.945312 7.535156 1.945312 7.535156 C 1.945312 7.507812 1.941406 7.480469 1.941406 7.457031 C 1.941406 7.441406 1.9375 7.429688 1.9375 7.414062 L 1.9375 7.335938 L 1.933594 7.304688 C 1.933594 7.296875 1.933594 7.285156 1.933594 7.273438 C 1.933594 7.261719 1.933594 7.25 1.933594 7.238281 C 1.933594 7.226562 1.933594 7.214844 1.933594 7.203125 C 1.933594 7.191406 1.933594 7.179688 1.933594 7.167969 C 1.933594 4.132812 4.394531 1.671875 7.425781 1.671875 C 10.460938 1.671875 12.917969 4.132812 12.917969 7.167969 L 12.917969 7.238281 C 12.917969 7.25 12.917969 7.261719 12.917969 7.273438 C 12.917969 7.28125 12.917969 7.292969 12.917969 7.300781 C 12.917969 7.3125 12.917969 7.320312 12.917969 7.328125 C 12.917969 7.339844 12.917969 7.351562 12.917969 7.359375 L 12.917969 7.363281 L 12.914062 7.402344 C 12.914062 7.410156 12.914062 7.421875 12.914062 7.433594 L 12.914062 7.441406 L 12.910156 7.476562 C 12.90625 7.554688 12.902344 7.632812 12.894531 7.707031 L 12.894531 7.710938 C 12.894531 7.722656 12.890625 7.734375 12.890625 7.746094 L 12.886719 7.777344 L 12.878906 7.835938 L 12.871094 7.898438 C 12.871094 7.914062 12.867188 7.925781 12.867188 7.9375 C 12.863281 7.953125 12.863281 7.964844 12.859375 7.980469 L 12.855469 8.011719 L 12.851562 8.050781 C 12.847656 8.0625 12.847656 8.074219 12.84375 8.089844 C 12.839844 8.101562 12.839844 8.113281 12.835938 8.125 C 12.832031 8.152344 12.828125 8.175781 12.824219 8.199219 C 12.816406 8.238281 12.808594 8.273438 12.800781 8.3125 L 12.792969 8.347656 C 12.789062 8.359375 12.789062 8.375 12.785156 8.386719 C 12.628906 8.234375 12.425781 8.152344 12.199219 8.152344 C 11.996094 8.152344 11.785156 8.222656 11.574219 8.355469 C 11.433594 8.445312 11.277344 8.601562 11.121094 8.800781 C 10.972656 8.59375 10.765625 8.457031 10.53125 8.421875 C 10.484375 8.414062 10.4375 8.410156 10.394531 8.410156 C 9.855469 8.410156 9.53125 8.878906 9.40625 9.300781 C 9.347656 9.441406 9.054688 10.089844 8.613281 10.527344 C 7.945312 11.195312 7.777344 11.882812 8.101562 12.617188 Z M 13.773438 11.136719 L 13.773438 11.144531 C 13.765625 11.160156 13.761719 11.171875 13.753906 11.1875 C 13.746094 11.199219 13.742188 11.207031 13.734375 11.21875 C 13.722656 11.234375 13.710938 11.253906 13.695312 11.269531 C 13.691406 11.273438 13.6875 11.277344 13.683594 11.28125 C 13.679688 11.285156 13.675781 11.289062 13.667969 11.296875 C 13.570312 11.394531 13.421875 11.476562 13.253906 11.554688 C 13.234375 11.5625 13.214844 11.574219 13.195312 11.582031 L 13.175781 11.589844 C 13.164062 11.597656 13.152344 11.601562 13.136719 11.605469 C 13.125 11.613281 13.109375 11.617188 13.097656 11.625 L 13.058594 11.640625 C 12.960938 11.679688 12.867188 11.714844 12.769531 11.753906 L 12.691406 11.785156 C 12.664062 11.796875 12.636719 11.804688 12.613281 11.816406 L 12.515625 11.855469 C 12.503906 11.859375 12.492188 11.863281 12.480469 11.871094 C 12.203125 11.988281 12.003906 12.109375 12.042969 12.261719 C 12.046875 12.265625 12.046875 12.269531 12.046875 12.273438 C 12.050781 12.285156 12.058594 12.296875 12.0625 12.304688 C 12.066406 12.3125 12.070312 12.316406 12.078125 12.320312 C 12.125 12.375 12.214844 12.363281 12.328125 12.324219 C 12.34375 12.316406 12.363281 12.3125 12.378906 12.304688 L 12.386719 12.300781 C 12.414062 12.289062 12.441406 12.277344 12.46875 12.265625 C 12.476562 12.261719 12.484375 12.257812 12.488281 12.253906 C 12.628906 12.1875 12.785156 12.097656 12.941406 12.011719 C 13.003906 11.980469 13.066406 11.945312 13.132812 11.917969 C 13.277344 11.847656 13.417969 11.796875 13.53125 11.796875 C 13.582031 11.796875 13.628906 11.808594 13.667969 11.832031 L 13.671875 11.835938 C 13.699219 11.855469 13.71875 11.875 13.734375 11.902344 C 13.734375 11.90625 13.738281 11.910156 13.742188 11.917969 C 13.796875 12.023438 13.75 12.128906 13.644531 12.238281 C 13.539062 12.339844 13.378906 12.4375 13.195312 12.53125 C 13.179688 12.539062 13.167969 12.546875 13.152344 12.550781 C 12.605469 12.820312 11.894531 13.023438 11.882812 13.023438 C 11.691406 13.074219 11.417969 13.136719 11.113281 13.1875 L 11.066406 13.195312 L 11.058594 13.195312 C 11.027344 13.199219 10.992188 13.207031 10.957031 13.210938 C 10.921875 13.214844 10.886719 13.21875 10.851562 13.222656 L 10.84375 13.222656 C 10.714844 13.238281 10.585938 13.25 10.457031 13.253906 L 10.453125 13.253906 C 10.40625 13.253906 10.359375 13.253906 10.3125 13.253906 L 10.257812 13.253906 C 10.1875 13.253906 10.117188 13.25 10.042969 13.246094 C 10.042969 13.246094 10.042969 13.246094 10.039062 13.246094 C 9.988281 13.242188 9.933594 13.234375 9.882812 13.230469 C 9.867188 13.226562 9.847656 13.222656 9.832031 13.222656 C 9.8125 13.21875 9.796875 13.214844 9.777344 13.210938 L 9.753906 13.207031 C 9.726562 13.203125 9.703125 13.195312 9.679688 13.191406 C 9.664062 13.1875 9.648438 13.183594 9.636719 13.179688 L 9.625 13.179688 C 9.621094 13.175781 9.613281 13.175781 9.605469 13.171875 L 9.601562 13.171875 L 9.578125 13.164062 C 9.570312 13.164062 9.5625 13.160156 9.554688 13.160156 L 9.550781 13.15625 L 9.53125 13.152344 C 9.523438 13.148438 9.515625 13.144531 9.507812 13.144531 L 9.488281 13.136719 L 9.472656 13.132812 C 9.460938 13.128906 9.445312 13.121094 9.433594 13.117188 L 9.417969 13.113281 L 9.410156 13.109375 C 9.386719 13.097656 9.367188 13.089844 9.347656 13.082031 L 9.335938 13.074219 L 9.332031 13.074219 C 9.328125 13.070312 9.324219 13.070312 9.316406 13.066406 C 9.308594 13.0625 9.300781 13.058594 9.289062 13.054688 L 9.289062 13.050781 L 9.273438 13.046875 C 9.25 13.035156 9.226562 13.019531 9.203125 13.007812 L 9.191406 13 C 9.1875 12.996094 9.179688 12.992188 9.171875 12.988281 L 9.140625 12.964844 L 9.128906 12.957031 C 9.117188 12.949219 9.105469 12.941406 9.097656 12.933594 L 9.078125 12.917969 C 9.074219 12.914062 9.066406 12.90625 9.058594 12.902344 C 9.054688 12.898438 9.046875 12.894531 9.042969 12.886719 C 9.035156 12.882812 9.03125 12.878906 9.027344 12.871094 C 9.019531 12.867188 9.015625 12.863281 9.007812 12.855469 C 9.003906 12.851562 8.996094 12.84375 8.992188 12.839844 C 8.984375 12.832031 8.980469 12.828125 8.972656 12.820312 C 8.96875 12.816406 8.964844 12.8125 8.957031 12.804688 C 8.953125 12.796875 8.949219 12.792969 8.941406 12.789062 L 8.941406 12.785156 C 8.9375 12.78125 8.929688 12.773438 8.925781 12.769531 C 8.914062 12.753906 8.90625 12.742188 8.894531 12.730469 C 8.886719 12.71875 8.875 12.703125 8.867188 12.691406 L 8.859375 12.675781 C 8.847656 12.660156 8.835938 12.640625 8.824219 12.625 C 8.816406 12.609375 8.808594 12.597656 8.800781 12.585938 C 8.792969 12.578125 8.789062 12.570312 8.785156 12.5625 L 8.78125 12.558594 C 8.777344 12.550781 8.773438 12.542969 8.769531 12.535156 C 8.765625 12.53125 8.761719 12.523438 8.761719 12.519531 C 8.757812 12.515625 8.757812 12.511719 8.753906 12.507812 L 8.75 12.5 L 8.746094 12.496094 C 8.742188 12.488281 8.738281 12.476562 8.734375 12.46875 C 8.730469 12.464844 8.726562 12.460938 8.726562 12.457031 L 8.71875 12.445312 L 8.714844 12.433594 C 8.695312 12.398438 8.679688 12.367188 8.667969 12.332031 L 8.660156 12.320312 C 8.65625 12.3125 8.65625 12.304688 8.652344 12.296875 C 8.648438 12.292969 8.648438 12.289062 8.648438 12.285156 C 8.625 12.222656 8.605469 12.160156 8.589844 12.09375 C 8.589844 12.089844 8.589844 12.085938 8.589844 12.082031 C 8.585938 12.0625 8.582031 12.042969 8.578125 12.023438 C 8.578125 12.019531 8.578125 12.015625 8.578125 12.011719 L 8.578125 12 C 8.574219 11.984375 8.574219 11.96875 8.574219 11.953125 C 8.574219 11.949219 8.574219 11.945312 8.574219 11.941406 C 8.574219 11.933594 8.570312 11.925781 8.570312 11.917969 C 8.566406 11.609375 8.726562 11.3125 9.058594 10.976562 C 9.65625 10.378906 10.003906 9.507812 10.003906 9.507812 C 10.003906 9.507812 10.011719 9.472656 10.03125 9.417969 C 10.035156 9.410156 10.039062 9.402344 10.042969 9.394531 C 10.054688 9.367188 10.066406 9.335938 10.078125 9.308594 L 10.082031 9.304688 C 10.09375 9.28125 10.109375 9.257812 10.121094 9.234375 C 10.125 9.226562 10.128906 9.222656 10.132812 9.21875 C 10.144531 9.203125 10.15625 9.1875 10.167969 9.171875 C 10.171875 9.164062 10.179688 9.15625 10.1875 9.148438 C 10.191406 9.144531 10.191406 9.140625 10.195312 9.140625 C 10.230469 9.101562 10.269531 9.074219 10.3125 9.058594 L 10.320312 9.054688 C 10.324219 9.054688 10.328125 9.054688 10.332031 9.054688 C 10.335938 9.050781 10.339844 9.050781 10.34375 9.050781 L 10.347656 9.050781 C 10.355469 9.046875 10.367188 9.046875 10.375 9.046875 C 10.382812 9.046875 10.386719 9.046875 10.390625 9.046875 C 10.398438 9.046875 10.402344 9.046875 10.410156 9.046875 C 10.417969 9.046875 10.421875 9.046875 10.429688 9.046875 C 10.484375 9.054688 10.535156 9.089844 10.578125 9.136719 C 10.59375 9.15625 10.609375 9.175781 10.625 9.199219 C 10.632812 9.210938 10.640625 9.226562 10.648438 9.242188 C 10.652344 9.25 10.652344 9.253906 10.65625 9.261719 C 10.664062 9.277344 10.671875 9.292969 10.675781 9.3125 C 10.691406 9.351562 10.703125 9.394531 10.710938 9.433594 C 10.714844 9.472656 10.71875 9.507812 10.71875 9.546875 C 10.71875 9.566406 10.71875 9.585938 10.71875 9.605469 C 10.714844 9.699219 10.695312 9.792969 10.664062 9.878906 C 10.660156 9.886719 10.65625 9.894531 10.652344 9.902344 C 10.648438 9.921875 10.640625 9.9375 10.632812 9.953125 C 10.625 9.964844 10.621094 9.976562 10.613281 9.988281 C 10.609375 9.996094 10.605469 10.003906 10.597656 10.011719 C 10.585938 10.03125 10.574219 10.050781 10.5625 10.070312 L 10.554688 10.082031 C 10.519531 10.128906 10.484375 10.167969 10.445312 10.207031 C 10.40625 10.246094 10.367188 10.28125 10.324219 10.316406 C 10.28125 10.347656 10.238281 10.382812 10.199219 10.421875 C 10.09375 10.535156 10.066406 10.636719 10.089844 10.714844 C 10.09375 10.726562 10.101562 10.738281 10.105469 10.75 C 10.113281 10.761719 10.121094 10.773438 10.132812 10.785156 L 10.140625 10.792969 C 10.144531 10.792969 10.148438 10.796875 10.152344 10.800781 L 10.15625 10.804688 C 10.167969 10.8125 10.179688 10.820312 10.191406 10.828125 C 10.195312 10.828125 10.195312 10.832031 10.199219 10.832031 C 10.214844 10.839844 10.226562 10.84375 10.238281 10.847656 C 10.242188 10.851562 10.246094 10.851562 10.25 10.851562 L 10.253906 10.851562 L 10.261719 10.855469 L 10.265625 10.855469 L 10.273438 10.859375 L 10.285156 10.859375 C 10.289062 10.859375 10.292969 10.859375 10.296875 10.863281 L 10.394531 10.863281 C 10.398438 10.863281 10.398438 10.859375 10.402344 10.859375 C 10.429688 10.855469 10.457031 10.847656 10.484375 10.835938 L 10.496094 10.832031 C 10.515625 10.824219 10.535156 10.8125 10.554688 10.800781 C 10.570312 10.792969 10.585938 10.78125 10.601562 10.765625 C 10.605469 10.761719 10.605469 10.757812 10.609375 10.757812 C 10.613281 10.753906 10.613281 10.753906 10.613281 10.75 C 10.617188 10.75 10.621094 10.746094 10.625 10.742188 C 10.648438 10.714844 10.667969 10.6875 10.683594 10.65625 C 10.828125 10.398438 10.976562 10.144531 11.128906 9.894531 L 11.152344 9.863281 L 11.171875 9.828125 C 11.183594 9.808594 11.195312 9.792969 11.207031 9.777344 L 11.214844 9.757812 C 11.253906 9.703125 11.289062 9.644531 11.328125 9.589844 L 11.347656 9.558594 C 11.394531 9.492188 11.4375 9.429688 11.480469 9.367188 L 11.503906 9.335938 C 11.550781 9.269531 11.601562 9.207031 11.652344 9.144531 L 11.671875 9.121094 C 11.675781 9.117188 11.679688 9.113281 11.683594 9.109375 C 11.6875 9.097656 11.695312 9.089844 11.703125 9.085938 C 11.707031 9.082031 11.710938 9.078125 11.710938 9.074219 L 11.730469 9.050781 L 11.742188 9.039062 C 11.75 9.03125 11.761719 9.019531 11.769531 9.011719 C 11.777344 9.003906 11.78125 8.996094 11.789062 8.992188 C 11.824219 8.953125 11.867188 8.917969 11.910156 8.890625 L 11.921875 8.882812 C 11.929688 8.878906 11.941406 8.871094 11.949219 8.867188 C 12.121094 8.769531 12.265625 8.761719 12.34375 8.84375 C 12.394531 8.894531 12.421875 8.972656 12.421875 9.089844 C 12.421875 9.09375 12.421875 9.097656 12.421875 9.105469 L 12.421875 9.109375 C 12.421875 9.113281 12.417969 9.121094 12.417969 9.125 C 12.417969 9.132812 12.417969 9.136719 12.417969 9.144531 C 12.417969 9.152344 12.417969 9.15625 12.417969 9.160156 C 12.417969 9.164062 12.417969 9.164062 12.414062 9.167969 C 12.414062 9.171875 12.414062 9.175781 12.414062 9.183594 C 12.414062 9.183594 12.414062 9.183594 12.414062 9.1875 C 12.414062 9.195312 12.410156 9.199219 12.410156 9.207031 C 12.410156 9.214844 12.410156 9.21875 12.40625 9.226562 L 12.40625 9.238281 C 12.402344 9.246094 12.402344 9.257812 12.398438 9.269531 C 12.394531 9.285156 12.386719 9.304688 12.378906 9.324219 C 12.367188 9.347656 12.355469 9.371094 12.339844 9.394531 C 12.332031 9.40625 12.324219 9.417969 12.316406 9.433594 C 12.308594 9.445312 12.300781 9.457031 12.292969 9.472656 C 12.269531 9.503906 12.246094 9.535156 12.21875 9.566406 L 12.207031 9.582031 C 12.167969 9.632812 12.125 9.683594 12.082031 9.730469 L 12.070312 9.746094 C 12.050781 9.765625 12.035156 9.785156 12.015625 9.804688 L 12 9.820312 C 11.992188 9.832031 11.980469 9.84375 11.972656 9.851562 C 11.960938 9.863281 11.953125 9.875 11.941406 9.882812 L 11.910156 9.914062 L 11.882812 9.949219 L 11.851562 9.980469 C 11.832031 10 11.808594 10.019531 11.789062 10.042969 C 11.496094 10.34375 11.1875 10.644531 11.082031 10.832031 C 11.074219 10.84375 11.066406 10.855469 11.0625 10.871094 C 11.046875 10.902344 11.042969 10.933594 11.046875 10.957031 C 11.046875 10.964844 11.050781 10.972656 11.054688 10.976562 C 11.058594 10.988281 11.066406 10.996094 11.074219 11.007812 C 11.078125 11.011719 11.082031 11.011719 11.085938 11.015625 C 11.109375 11.03125 11.132812 11.039062 11.160156 11.039062 L 11.1875 11.039062 L 11.191406 11.035156 C 11.195312 11.035156 11.195312 11.035156 11.195312 11.035156 L 11.203125 11.035156 L 11.210938 11.03125 L 11.222656 11.03125 C 11.222656 11.03125 11.226562 11.027344 11.230469 11.027344 C 11.242188 11.023438 11.257812 11.019531 11.269531 11.015625 C 11.273438 11.011719 11.28125 11.007812 11.289062 11.003906 C 11.289062 11.003906 11.292969 11.003906 11.296875 11 L 11.304688 10.996094 C 11.328125 10.984375 11.351562 10.972656 11.375 10.957031 L 11.382812 10.949219 C 11.386719 10.949219 11.390625 10.945312 11.394531 10.945312 L 11.402344 10.9375 L 11.410156 10.933594 L 11.421875 10.925781 C 11.433594 10.914062 11.449219 10.90625 11.460938 10.898438 L 11.460938 10.894531 L 11.480469 10.878906 C 11.507812 10.859375 11.53125 10.839844 11.554688 10.820312 L 11.578125 10.796875 C 11.597656 10.78125 11.613281 10.765625 11.628906 10.75 L 11.632812 10.746094 C 11.640625 10.742188 11.644531 10.738281 11.648438 10.734375 L 11.660156 10.722656 L 11.667969 10.710938 L 11.671875 10.707031 L 11.675781 10.707031 L 11.675781 10.703125 L 11.679688 10.703125 L 11.679688 10.699219 L 11.683594 10.699219 L 11.707031 10.675781 C 11.710938 10.675781 11.714844 10.671875 11.71875 10.664062 L 11.730469 10.65625 C 11.730469 10.65625 11.734375 10.652344 11.734375 10.652344 L 11.746094 10.644531 L 11.761719 10.628906 L 11.769531 10.625 C 11.800781 10.59375 11.839844 10.5625 11.882812 10.523438 L 11.902344 10.511719 L 11.929688 10.484375 L 11.960938 10.460938 C 12 10.425781 12.042969 10.390625 12.089844 10.355469 L 12.117188 10.332031 C 12.144531 10.3125 12.171875 10.289062 12.195312 10.269531 C 12.207031 10.261719 12.21875 10.253906 12.230469 10.246094 C 12.320312 10.175781 12.410156 10.109375 12.503906 10.042969 L 12.53125 10.023438 C 12.550781 10.007812 12.570312 9.996094 12.589844 9.984375 L 12.605469 9.972656 C 12.640625 9.949219 12.675781 9.925781 12.710938 9.902344 L 12.730469 9.890625 L 12.746094 9.878906 C 12.765625 9.871094 12.78125 9.859375 12.796875 9.847656 L 12.816406 9.835938 L 12.851562 9.816406 L 12.882812 9.796875 L 12.890625 9.792969 L 12.917969 9.78125 C 12.929688 9.773438 12.941406 9.769531 12.953125 9.761719 L 12.984375 9.746094 C 12.992188 9.742188 12.996094 9.738281 13 9.738281 C 13.046875 9.714844 13.09375 9.695312 13.144531 9.675781 L 13.171875 9.664062 C 13.179688 9.664062 13.191406 9.660156 13.199219 9.65625 L 13.203125 9.65625 C 13.207031 9.65625 13.210938 9.652344 13.214844 9.652344 C 13.226562 9.648438 13.234375 9.648438 13.242188 9.644531 L 13.246094 9.644531 C 13.269531 9.636719 13.296875 9.632812 13.324219 9.632812 C 13.335938 9.628906 13.347656 9.628906 13.359375 9.628906 L 13.363281 9.628906 C 13.375 9.628906 13.382812 9.628906 13.390625 9.632812 C 13.390625 9.632812 13.394531 9.632812 13.398438 9.632812 L 13.402344 9.632812 C 13.402344 9.632812 13.40625 9.632812 13.410156 9.632812 C 13.414062 9.632812 13.417969 9.636719 13.421875 9.636719 C 13.425781 9.636719 13.429688 9.636719 13.433594 9.636719 C 13.449219 9.644531 13.46875 9.652344 13.484375 9.660156 C 13.492188 9.667969 13.5 9.671875 13.507812 9.679688 L 13.515625 9.6875 C 13.546875 9.71875 13.570312 9.753906 13.585938 9.792969 L 13.589844 9.800781 C 13.617188 9.859375 13.617188 9.925781 13.59375 9.984375 C 13.585938 10 13.578125 10.019531 13.570312 10.035156 C 13.546875 10.074219 13.519531 10.109375 13.488281 10.140625 L 13.480469 10.148438 C 13.472656 10.15625 13.460938 10.167969 13.453125 10.179688 C 13.449219 10.183594 13.441406 10.1875 13.4375 10.191406 L 13.421875 10.207031 L 13.414062 10.210938 C 13.386719 10.238281 13.355469 10.265625 13.320312 10.289062 C 13.28125 10.320312 13.234375 10.351562 13.191406 10.382812 C 13.164062 10.402344 13.140625 10.417969 13.113281 10.4375 C 13.046875 10.480469 12.976562 10.523438 12.910156 10.566406 C 12.765625 10.652344 12.609375 10.746094 12.441406 10.847656 L 12.398438 10.875 C 12.347656 10.902344 12.304688 10.933594 12.261719 10.957031 L 12.238281 10.972656 L 12.199219 10.996094 C 12.171875 11.015625 12.144531 11.03125 12.121094 11.050781 L 12.097656 11.0625 C 12.085938 11.070312 12.078125 11.078125 12.066406 11.085938 L 12.054688 11.089844 L 12.007812 11.125 L 11.988281 11.136719 L 11.972656 11.148438 C 11.941406 11.171875 11.914062 11.191406 11.886719 11.210938 L 11.878906 11.21875 C 11.863281 11.230469 11.847656 11.242188 11.832031 11.253906 C 11.808594 11.269531 11.789062 11.289062 11.769531 11.304688 L 11.761719 11.3125 C 11.757812 11.316406 11.75 11.324219 11.746094 11.328125 C 11.742188 11.332031 11.738281 11.332031 11.738281 11.335938 L 11.730469 11.339844 C 11.722656 11.351562 11.710938 11.363281 11.703125 11.375 L 11.695312 11.378906 C 11.6875 11.390625 11.675781 11.402344 11.667969 11.414062 L 11.664062 11.421875 C 11.660156 11.429688 11.652344 11.4375 11.648438 11.449219 C 11.644531 11.449219 11.644531 11.453125 11.644531 11.457031 L 11.640625 11.464844 L 11.636719 11.46875 L 11.636719 11.476562 L 11.632812 11.480469 C 11.628906 11.492188 11.625 11.503906 11.625 11.519531 L 11.625 11.550781 C 11.625 11.550781 11.625 11.554688 11.625 11.554688 L 11.625 11.558594 C 11.625 11.5625 11.625 11.5625 11.625 11.566406 C 11.625 11.566406 11.625 11.570312 11.625 11.574219 C 11.625 11.574219 11.628906 11.578125 11.628906 11.582031 C 11.628906 11.582031 11.628906 11.585938 11.628906 11.589844 C 11.632812 11.59375 11.632812 11.597656 11.636719 11.605469 C 11.636719 11.605469 11.636719 11.609375 11.636719 11.613281 C 11.636719 11.613281 11.640625 11.613281 11.640625 11.613281 L 11.640625 11.621094 L 11.644531 11.628906 C 11.648438 11.636719 11.652344 11.644531 11.65625 11.652344 L 11.664062 11.660156 L 11.671875 11.675781 L 11.675781 11.675781 L 11.675781 11.679688 C 11.730469 11.695312 11.816406 11.660156 11.933594 11.597656 C 11.9375 11.59375 11.945312 11.589844 11.953125 11.585938 L 11.988281 11.570312 L 12.003906 11.558594 C 12.015625 11.554688 12.027344 11.546875 12.042969 11.539062 L 12.0625 11.527344 C 12.214844 11.4375 12.394531 11.328125 12.582031 11.21875 C 12.597656 11.207031 12.617188 11.199219 12.632812 11.1875 L 12.667969 11.164062 C 12.710938 11.140625 12.75 11.117188 12.792969 11.09375 C 12.84375 11.066406 12.898438 11.039062 12.949219 11.011719 L 12.984375 10.996094 C 13.007812 10.984375 13.03125 10.972656 13.050781 10.960938 C 13.097656 10.941406 13.140625 10.921875 13.183594 10.902344 L 13.207031 10.894531 L 13.210938 10.890625 C 13.339844 10.839844 13.457031 10.808594 13.550781 10.808594 C 13.570312 10.808594 13.59375 10.8125 13.613281 10.816406 C 13.617188 10.816406 13.625 10.816406 13.632812 10.820312 C 13.648438 10.824219 13.664062 10.828125 13.675781 10.835938 C 13.695312 10.84375 13.714844 10.859375 13.730469 10.875 C 13.738281 10.882812 13.742188 10.890625 13.75 10.902344 C 13.757812 10.917969 13.765625 10.933594 13.773438 10.949219 C 13.773438 10.957031 13.777344 10.964844 13.777344 10.972656 C 13.792969 11.027344 13.792969 11.085938 13.773438 11.136719 Z M 13.773438 11.136719 "/>
<path style=" stroke:none;fill-rule:evenodd;fill:rgb(100%,82.352942%,11.764706%);fill-opacity:1;" d="M 12.917969 7.203125 L 12.917969 7.167969 C 12.917969 4.132812 10.460938 1.671875 7.425781 1.671875 C 4.394531 1.671875 1.933594 4.132812 1.933594 7.167969 L 1.933594 7.179688 C 1.933594 7.1875 1.933594 7.195312 1.933594 7.203125 C 1.933594 7.214844 1.933594 7.226562 1.933594 7.238281 L 1.933594 7.273438 C 1.933594 7.277344 1.933594 7.28125 1.933594 7.285156 C 1.933594 7.292969 1.933594 7.300781 1.933594 7.304688 L 1.9375 7.335938 L 1.9375 7.414062 C 1.9375 7.429688 1.941406 7.441406 1.941406 7.453125 L 1.941406 7.457031 C 1.941406 7.46875 1.941406 7.484375 1.941406 7.496094 C 1.945312 7.507812 1.945312 7.523438 1.945312 7.535156 C 1.945312 7.546875 1.945312 7.558594 1.949219 7.570312 L 1.949219 7.605469 C 1.949219 7.613281 1.953125 7.617188 1.953125 7.625 C 1.957031 7.675781 1.960938 7.726562 1.96875 7.78125 L 1.96875 7.785156 L 1.972656 7.820312 L 1.976562 7.863281 L 1.980469 7.890625 L 1.980469 7.902344 C 1.984375 7.929688 1.992188 7.960938 1.996094 7.992188 L 2 8.019531 C 2.019531 8.152344 2.046875 8.285156 2.078125 8.414062 L 2.078125 8.425781 L 2.085938 8.453125 L 2.089844 8.449219 C 2.25 8.257812 2.476562 8.152344 2.734375 8.152344 C 2.9375 8.152344 3.148438 8.222656 3.359375 8.355469 C 3.5 8.445312 3.65625 8.601562 3.8125 8.800781 C 3.960938 8.59375 4.167969 8.460938 4.402344 8.421875 C 4.449219 8.414062 4.496094 8.410156 4.539062 8.410156 C 5.078125 8.410156 5.402344 8.878906 5.527344 9.300781 C 5.585938 9.441406 5.878906 10.089844 6.320312 10.527344 C 6.988281 11.195312 7.15625 11.886719 6.824219 12.625 C 6.847656 12.628906 6.871094 12.628906 6.894531 12.632812 C 6.90625 12.632812 6.921875 12.636719 6.933594 12.636719 L 6.941406 12.636719 L 6.96875 12.640625 L 6.996094 12.640625 C 7.023438 12.644531 7.050781 12.644531 7.074219 12.648438 L 7.125 12.648438 L 7.15625 12.652344 L 7.199219 12.652344 L 7.238281 12.65625 L 7.273438 12.65625 C 7.277344 12.65625 7.285156 12.65625 7.292969 12.65625 L 7.296875 12.65625 C 7.339844 12.65625 7.382812 12.65625 7.425781 12.65625 L 7.503906 12.65625 C 7.511719 12.65625 7.519531 12.65625 7.527344 12.65625 L 7.550781 12.65625 C 7.554688 12.65625 7.5625 12.65625 7.566406 12.65625 L 7.640625 12.65625 L 7.683594 12.652344 C 7.695312 12.652344 7.707031 12.652344 7.71875 12.652344 L 7.734375 12.648438 L 7.773438 12.648438 L 7.851562 12.640625 L 7.886719 12.640625 L 7.910156 12.636719 L 7.9375 12.636719 C 7.984375 12.632812 8.027344 12.625 8.074219 12.621094 L 8.105469 12.617188 C 7.777344 11.882812 7.945312 11.195312 8.613281 10.527344 C 9.054688 10.089844 9.34375 9.441406 9.40625 9.300781 C 9.527344 8.878906 9.851562 8.410156 10.390625 8.410156 C 10.4375 8.410156 10.484375 8.414062 10.527344 8.421875 C 10.765625 8.457031 10.972656 8.59375 11.117188 8.800781 C 11.277344 8.601562 11.433594 8.445312 11.574219 8.355469 C 11.78125 8.222656 11.992188 8.152344 12.199219 8.152344 C 12.425781 8.152344 12.628906 8.234375 12.785156 8.386719 C 12.785156 8.375 12.789062 8.359375 12.792969 8.347656 L 12.800781 8.3125 C 12.804688 8.300781 12.804688 8.285156 12.808594 8.273438 C 12.8125 8.25 12.816406 8.226562 12.824219 8.199219 C 12.828125 8.175781 12.832031 8.152344 12.835938 8.125 L 12.839844 8.113281 C 12.839844 8.105469 12.839844 8.097656 12.84375 8.089844 C 12.84375 8.074219 12.847656 8.0625 12.847656 8.050781 L 12.851562 8.046875 L 12.855469 8.011719 L 12.859375 7.980469 C 12.863281 7.957031 12.867188 7.929688 12.871094 7.90625 L 12.871094 7.898438 L 12.878906 7.835938 L 12.886719 7.777344 L 12.890625 7.753906 L 12.890625 7.746094 C 12.890625 7.734375 12.890625 7.722656 12.894531 7.710938 L 12.894531 7.707031 C 12.894531 7.699219 12.894531 7.6875 12.894531 7.679688 C 12.902344 7.621094 12.90625 7.5625 12.910156 7.507812 C 12.910156 7.496094 12.910156 7.488281 12.910156 7.476562 L 12.914062 7.441406 L 12.914062 7.433594 C 12.914062 7.410156 12.914062 7.386719 12.917969 7.363281 L 12.917969 7.351562 C 12.917969 7.34375 12.917969 7.335938 12.917969 7.328125 L 12.917969 7.324219 C 12.917969 7.316406 12.917969 7.308594 12.917969 7.300781 L 12.917969 7.296875 C 12.917969 7.289062 12.917969 7.28125 12.917969 7.273438 L 12.917969 7.265625 C 12.917969 7.257812 12.917969 7.246094 12.917969 7.238281 Z M 6.0625 12.6875 C 6.5 12.050781 6.46875 11.574219 5.871094 10.976562 C 5.273438 10.378906 4.925781 9.507812 4.925781 9.507812 C 4.925781 9.507812 4.796875 9 4.5 9.046875 C 4.207031 9.09375 3.988281 9.851562 4.609375 10.3125 C 5.226562 10.777344 4.484375 11.089844 4.246094 10.65625 C 4.007812 10.222656 3.359375 9.105469 3.019531 8.890625 C 2.683594 8.675781 2.445312 8.796875 2.523438 9.238281 C 2.566406 9.457031 2.933594 9.828125 3.277344 10.175781 C 3.625 10.53125 3.945312 10.859375 3.878906 10.976562 C 3.742188 11.207031 3.257812 10.707031 3.257812 10.707031 C 3.257812 10.707031 1.746094 9.328125 1.414062 9.6875 C 1.109375 10.019531 1.578125 10.300781 2.300781 10.734375 C 2.363281 10.769531 2.425781 10.808594 2.492188 10.847656 C 3.316406 11.347656 3.378906 11.476562 3.261719 11.667969 C 3.21875 11.738281 2.945312 11.570312 2.601562 11.367188 C 2.023438 11.019531 1.261719 10.558594 1.152344 10.972656 C 1.058594 11.328125 1.621094 11.542969 2.128906 11.742188 C 2.554688 11.90625 2.945312 12.058594 2.886719 12.261719 C 2.828125 12.472656 2.507812 12.296875 2.15625 12.101562 C 1.761719 11.886719 1.328125 11.648438 1.1875 11.917969 C 0.921875 12.421875 3.03125 13.019531 3.046875 13.023438 C 3.730469 13.199219 5.460938 13.574219 6.0625 12.6875 Z M 8.867188 12.6875 C 8.433594 12.050781 8.460938 11.574219 9.058594 10.976562 C 9.65625 10.378906 10.003906 9.507812 10.003906 9.507812 C 10.003906 9.507812 10.132812 9 10.429688 9.046875 C 10.726562 9.09375 10.941406 9.851562 10.324219 10.3125 C 9.703125 10.777344 10.445312 11.089844 10.683594 10.65625 C 10.921875 10.222656 11.574219 9.105469 11.910156 8.890625 C 12.246094 8.675781 12.484375 8.796875 12.40625 9.238281 C 12.367188 9.457031 12 9.828125 11.65625 10.179688 C 11.308594 10.53125 10.984375 10.859375 11.054688 10.976562 C 11.191406 11.207031 11.671875 10.707031 11.671875 10.707031 C 11.671875 10.707031 13.1875 9.328125 13.515625 9.6875 C 13.820312 10.019531 13.351562 10.300781 12.628906 10.730469 C 12.566406 10.769531 12.503906 10.808594 12.441406 10.847656 C 11.613281 11.347656 11.550781 11.476562 11.667969 11.667969 C 11.710938 11.738281 11.988281 11.570312 12.328125 11.367188 C 12.90625 11.019531 13.671875 10.558594 13.777344 10.972656 C 13.871094 11.328125 13.308594 11.542969 12.800781 11.742188 C 12.375 11.90625 11.988281 12.054688 12.042969 12.261719 C 12.101562 12.472656 12.425781 12.296875 12.773438 12.101562 C 13.167969 11.886719 13.601562 11.648438 13.742188 11.917969 C 14.007812 12.421875 11.898438 13.019531 11.882812 13.023438 C 11.203125 13.199219 9.472656 13.574219 8.867188 12.6875 Z M 8.867188 12.6875 "/>
<path style=" stroke:none;fill-rule:evenodd;fill:rgb(19.607843%,20.392157%,23.921569%);fill-opacity:1;" d="M 9.210938 5.671875 C 9.296875 5.703125 9.359375 5.792969 9.421875 5.882812 C 9.503906 6 9.578125 6.109375 9.695312 6.046875 C 9.886719 5.945312 10.027344 5.769531 10.085938 5.5625 C 10.144531 5.355469 10.113281 5.132812 10.003906 4.945312 C 9.882812 4.742188 9.675781 4.605469 9.441406 4.570312 C 9.082031 4.515625 8.734375 4.710938 8.59375 5.046875 C 8.503906 5.265625 8.515625 5.511719 8.625 5.722656 C 8.679688 5.824219 8.800781 5.773438 8.929688 5.722656 C 9.027344 5.683594 9.132812 5.644531 9.210938 5.671875 Z M 5.488281 5.671875 C 5.402344 5.703125 5.335938 5.792969 5.277344 5.882812 C 5.195312 6 5.117188 6.109375 5 6.046875 C 4.640625 5.855469 4.488281 5.425781 4.640625 5.050781 C 4.796875 4.671875 5.210938 4.476562 5.601562 4.59375 C 5.90625 4.6875 6.128906 4.953125 6.160156 5.269531 C 6.175781 5.425781 6.144531 5.582031 6.070312 5.722656 C 6.015625 5.824219 5.894531 5.773438 5.769531 5.722656 C 5.667969 5.683594 5.566406 5.644531 5.488281 5.671875 Z M 8.632812 9.058594 C 9.226562 8.59375 9.441406 7.835938 9.441406 7.367188 C 9.441406 7 9.191406 7.113281 8.792969 7.3125 L 8.773438 7.324219 C 8.40625 7.503906 7.921875 7.746094 7.386719 7.746094 C 6.851562 7.746094 6.367188 7.503906 6 7.324219 C 5.589844 7.117188 5.332031 6.992188 5.332031 7.367188 C 5.332031 7.851562 5.5625 8.640625 6.195312 9.101562 C 6.363281 8.761719 6.667969 8.503906 7.035156 8.394531 C 7.097656 8.375 7.164062 8.484375 7.230469 8.59375 C 7.292969 8.703125 7.359375 8.8125 7.425781 8.8125 C 7.496094 8.8125 7.566406 8.703125 7.636719 8.597656 C 7.707031 8.488281 7.777344 8.378906 7.84375 8.402344 C 8.183594 8.511719 8.464844 8.746094 8.632812 9.058594 Z M 8.632812 9.058594 "/>
<path style=" stroke:none;fill-rule:nonzero;fill:rgb(100%,19.607843%,23.921569%);fill-opacity:1;" d="M 8.632812 9.058594 C 8.328125 9.300781 7.917969 9.464844 7.386719 9.464844 C 6.886719 9.464844 6.496094 9.320312 6.195312 9.101562 C 6.363281 8.761719 6.667969 8.503906 7.035156 8.394531 C 7.15625 8.355469 7.289062 8.8125 7.425781 8.8125 C 7.570312 8.8125 7.710938 8.359375 7.84375 8.402344 C 8.183594 8.511719 8.464844 8.746094 8.632812 9.058594 Z M 8.632812 9.058594 "/>
<path style=" stroke:none;fill-rule:evenodd;fill:rgb(100%,67.843139%,1.176471%);fill-opacity:1;" d="M 4.074219 6.328125 C 3.933594 6.425781 3.75 6.441406 3.59375 6.375 C 3.46875 6.324219 3.367188 6.222656 3.316406 6.097656 C 3.25 5.941406 3.265625 5.757812 3.363281 5.617188 C 3.476562 5.445312 3.6875 5.355469 3.890625 5.398438 C 4.09375 5.4375 4.253906 5.597656 4.292969 5.800781 C 4.335938 6.003906 4.25 6.214844 4.074219 6.328125 Z M 11.425781 6.328125 C 11.285156 6.425781 11.101562 6.441406 10.945312 6.375 C 10.816406 6.324219 10.71875 6.222656 10.664062 6.097656 C 10.632812 6.019531 10.621094 5.933594 10.628906 5.851562 C 10.644531 5.6875 10.738281 5.542969 10.875 5.460938 C 11.078125 5.339844 11.335938 5.371094 11.503906 5.539062 C 11.652344 5.683594 11.695312 5.90625 11.617188 6.097656 C 11.578125 6.191406 11.511719 6.273438 11.425781 6.328125 Z M 11.425781 6.328125 "/>
</g>
</svg>
