<?xml version="1.0" encoding="UTF-8"?>
<svg xmlns="http://www.w3.org/2000/svg" xmlns:xlink="http://www.w3.org/1999/xlink" width="15px" height="15px" viewBox="0 0 15 15" version="1.1">
<g id="surface1">
<path style=" stroke:none;fill-rule:nonzero;fill:rgb(10.980392%,10.980392%,10.588235%);fill-opacity:1;" d="M 5.539062 8.882812 L 2.769531 8.882812 L 2.773438 6.117188 L 5.539062 6.117188 Z M 5.539062 8.882812 "/>
<path style=" stroke:none;fill-rule:nonzero;fill:rgb(10.980392%,10.980392%,10.588235%);fill-opacity:1;" d="M 8.304688 11.652344 L 5.539062 11.652344 L 5.539062 8.882812 L 8.308594 8.882812 Z M 8.304688 11.652344 "/>
<path style=" stroke:none;fill-rule:nonzero;fill:rgb(10.980392%,10.980392%,10.588235%);fill-opacity:1;" d="M 8.308594 8.882812 L 5.539062 8.882812 L 5.539062 6.117188 L 8.308594 6.117188 Z M 8.308594 8.882812 "/>
<path style=" stroke:none;fill-rule:nonzero;fill:rgb(10.980392%,10.980392%,10.588235%);fill-opacity:1;" d="M 11.078125 8.882812 L 8.308594 8.882812 L 8.308594 6.117188 L 11.078125 6.117188 Z M 5.539062 6.117188 L 2.773438 6.117188 L 2.773438 3.347656 L 5.542969 3.347656 Z M 11.078125 6.117188 L 8.308594 6.117188 L 8.308594 3.347656 L 11.078125 3.347656 Z M 2.769531 8.882812 L 0.00390625 8.882812 L 0.00390625 6.070312 L 2.773438 6.070312 Z M 2.769531 8.882812 "/>
<path style=" stroke:none;fill-rule:nonzero;fill:rgb(10.980392%,10.980392%,10.588235%);fill-opacity:1;" d="M 2.773438 6.117188 L 0.00390625 6.117188 L 0.00390625 3.347656 L 2.773438 3.347656 Z M 2.773438 6.117188 "/>
<path style=" stroke:none;fill-rule:nonzero;fill:rgb(10.980392%,10.980392%,10.588235%);fill-opacity:1;" d="M 2.773438 3.394531 L 0.00390625 3.394531 L 0.0078125 0.582031 L 2.773438 0.582031 Z M 13.847656 3.347656 L 11.078125 3.347656 L 11.082031 0.582031 L 13.847656 0.582031 Z M 2.769531 11.695312 L 0 11.695312 L 0.00390625 8.835938 L 2.769531 8.835938 Z M 2.769531 11.695312 "/>
<path style=" stroke:none;fill-rule:nonzero;fill:rgb(10.980392%,10.980392%,10.588235%);fill-opacity:1;" d="M 2.769531 14.417969 L 0 14.417969 L 0 11.652344 L 2.769531 11.652344 Z M 13.84375 8.882812 L 11.078125 8.882812 L 11.078125 6.117188 L 13.847656 6.117188 Z M 13.847656 6.117188 L 11.078125 6.117188 L 11.078125 3.347656 L 13.847656 3.347656 Z M 13.847656 6.117188 "/>
<path style=" stroke:none;fill-rule:nonzero;fill:rgb(10.980392%,10.980392%,10.588235%);fill-opacity:1;" d="M 13.84375 11.652344 L 11.074219 11.652344 L 11.078125 8.882812 L 13.84375 8.882812 Z M 13.84375 11.652344 "/>
<path style=" stroke:none;fill-rule:nonzero;fill:rgb(10.980392%,10.980392%,10.588235%);fill-opacity:1;" d="M 13.84375 14.417969 L 11.074219 14.417969 L 11.074219 11.605469 L 13.84375 11.605469 Z M 13.84375 14.417969 "/>
<path style=" stroke:none;fill-rule:nonzero;fill:rgb(100%,43.921569%,0%);fill-opacity:1;" d="M 6.691406 8.882812 L 3.875 8.882812 L 3.878906 6.117188 L 6.691406 6.117188 Z M 6.691406 8.882812 "/>
<path style=" stroke:none;fill-rule:nonzero;fill:rgb(100%,28.627452%,0%);fill-opacity:1;" d="M 9.457031 11.648438 L 6.6875 11.648438 L 6.691406 8.835938 L 9.460938 8.835938 Z M 9.457031 11.648438 "/>
<path style=" stroke:none;fill-rule:nonzero;fill:rgb(100%,43.921569%,0%);fill-opacity:1;" d="M 9.503906 8.882812 L 6.644531 8.882812 L 6.644531 6.117188 L 9.507812 6.117188 Z M 9.503906 8.882812 "/>
<path style=" stroke:none;fill-rule:nonzero;fill:rgb(100%,43.921569%,0%);fill-opacity:1;" d="M 12.273438 8.882812 L 9.460938 8.882812 L 9.460938 6.117188 L 12.273438 6.117188 Z M 12.273438 8.882812 "/>
<path style=" stroke:none;fill-rule:nonzero;fill:rgb(100%,63.921571%,0%);fill-opacity:1;" d="M 6.691406 6.117188 L 3.878906 6.117188 L 3.878906 3.347656 L 6.695312 3.347656 Z M 12.273438 6.117188 L 9.460938 6.117188 L 9.460938 3.347656 L 12.277344 3.347656 Z M 12.273438 6.117188 "/>
<path style=" stroke:none;fill-rule:nonzero;fill:rgb(100%,43.921569%,0%);fill-opacity:1;" d="M 3.921875 8.929688 L 1.152344 8.929688 L 1.15625 6.117188 L 3.921875 6.117188 Z M 3.921875 8.929688 "/>
<path style=" stroke:none;fill-rule:nonzero;fill:rgb(100%,63.921571%,0%);fill-opacity:1;" d="M 3.921875 6.117188 L 1.15625 6.117188 L 1.15625 3.320312 L 3.925781 3.320312 Z M 3.921875 6.117188 "/>
<path style=" stroke:none;fill-rule:nonzero;fill:rgb(100%,80.784315%,0%);fill-opacity:1;" d="M 3.925781 3.347656 L 1.15625 3.347656 L 1.15625 0.582031 L 3.925781 0.582031 Z M 15 3.378906 L 12.230469 3.378906 L 12.230469 0.582031 L 15 0.582031 Z M 15 3.378906 "/>
<path style=" stroke:none;fill-rule:nonzero;fill:rgb(100%,28.627452%,0%);fill-opacity:1;" d="M 3.921875 11.710938 L 1.152344 11.710938 L 1.152344 8.882812 L 3.921875 8.882812 Z M 3.921875 11.710938 "/>
<path style=" stroke:none;fill-rule:nonzero;fill:rgb(100%,0.392157%,2.745098%);fill-opacity:1;" d="M 3.917969 14.417969 L 1.152344 14.417969 L 1.152344 11.652344 L 3.921875 11.652344 Z M 3.917969 14.417969 "/>
<path style=" stroke:none;fill-rule:nonzero;fill:rgb(100%,43.921569%,0%);fill-opacity:1;" d="M 14.996094 8.882812 L 12.226562 8.882812 L 12.230469 6.117188 L 14.996094 6.117188 Z M 14.996094 8.882812 "/>
<path style=" stroke:none;fill-rule:nonzero;fill:rgb(100%,63.921571%,0%);fill-opacity:1;" d="M 14.996094 6.117188 L 12.230469 6.117188 L 12.230469 3.347656 L 15 3.347656 Z M 14.996094 6.117188 "/>
<path style=" stroke:none;fill-rule:nonzero;fill:rgb(100%,28.627452%,0%);fill-opacity:1;" d="M 14.996094 11.679688 L 12.226562 11.679688 L 12.226562 8.882812 L 14.996094 8.882812 Z M 14.996094 11.679688 "/>
<path style=" stroke:none;fill-rule:nonzero;fill:rgb(100%,0.392157%,2.745098%);fill-opacity:1;" d="M 14.992188 14.417969 L 12.226562 14.417969 L 12.226562 11.652344 L 14.996094 11.652344 Z M 14.992188 14.417969 "/>
</g>
</svg>
