<?xml version="1.0" encoding="UTF-8"?>
<svg xmlns="http://www.w3.org/2000/svg" xmlns:xlink="http://www.w3.org/1999/xlink" width="11px" height="15px" viewBox="0 0 11 14" version="1.1">
<g id="surface1">
<path style=" stroke:none;fill-rule:nonzero;fill:rgb(0%,0%,0%);fill-opacity:1;" d="M 2.394531 0.00390625 C 2.257812 0.0234375 2.097656 0.09375 1.980469 0.179688 C 1.632812 0.433594 1.363281 0.972656 1.25 1.644531 C 1.207031 1.898438 1.179688 2.25 1.179688 2.519531 C 1.179688 2.835938 1.21875 3.242188 1.273438 3.523438 C 1.285156 3.585938 1.292969 3.640625 1.285156 3.644531 C 1.28125 3.648438 1.230469 3.691406 1.171875 3.734375 C 0.976562 3.886719 0.753906 4.117188 0.597656 4.328125 C 0.300781 4.734375 0.109375 5.195312 0.03125 5.691406 C -0.00390625 5.890625 -0.0117188 6.289062 0.015625 6.484375 C 0.0703125 6.9375 0.210938 7.324219 0.457031 7.675781 L 0.535156 7.789062 L 0.511719 7.824219 C 0.347656 8.089844 0.210938 8.46875 0.144531 8.835938 C 0.09375 9.125 0.0859375 9.203125 0.0859375 9.589844 C 0.0859375 9.980469 0.09375 10.058594 0.140625 10.328125 C 0.199219 10.652344 0.316406 10.996094 0.445312 11.222656 C 0.488281 11.296875 0.59375 11.453125 0.605469 11.460938 C 0.609375 11.460938 0.597656 11.5 0.578125 11.542969 C 0.425781 11.859375 0.296875 12.28125 0.246094 12.636719 C 0.207031 12.878906 0.203125 12.957031 0.203125 13.210938 C 0.203125 13.539062 0.222656 13.699219 0.292969 13.957031 L 0.304688 13.996094 L 1.199219 13.996094 L 1.167969 13.945312 C 0.988281 13.621094 0.972656 13.023438 1.125 12.429688 C 1.199219 12.152344 1.277344 11.953125 1.429688 11.671875 L 1.519531 11.503906 L 1.519531 11.402344 C 1.519531 11.304688 1.515625 11.292969 1.484375 11.230469 C 1.457031 11.183594 1.425781 11.140625 1.367188 11.085938 C 1.265625 10.988281 1.191406 10.890625 1.132812 10.769531 C 0.875 10.230469 0.824219 9.433594 1.007812 8.753906 C 1.082031 8.472656 1.207031 8.21875 1.335938 8.082031 C 1.425781 7.988281 1.472656 7.882812 1.472656 7.773438 C 1.472656 7.660156 1.429688 7.566406 1.335938 7.46875 C 1.066406 7.191406 0.898438 6.851562 0.839844 6.460938 C 0.753906 5.898438 0.910156 5.289062 1.257812 4.804688 C 1.597656 4.332031 2.078125 4.027344 2.613281 3.945312 C 2.734375 3.925781 2.957031 3.929688 3.082031 3.953125 C 3.21875 3.976562 3.304688 3.96875 3.394531 3.929688 C 3.503906 3.878906 3.554688 3.816406 3.621094 3.675781 C 3.675781 3.550781 3.71875 3.484375 3.839844 3.339844 C 3.980469 3.171875 4.117188 3.054688 4.335938 2.917969 C 4.585938 2.757812 4.871094 2.644531 5.15625 2.589844 C 5.257812 2.570312 5.308594 2.566406 5.5 2.566406 C 5.691406 2.566406 5.742188 2.570312 5.84375 2.589844 C 6.261719 2.671875 6.675781 2.878906 7.003906 3.171875 C 7.074219 3.234375 7.246094 3.4375 7.300781 3.519531 C 7.320312 3.554688 7.355469 3.625 7.378906 3.675781 C 7.445312 3.816406 7.496094 3.878906 7.605469 3.929688 C 7.691406 3.96875 7.78125 3.976562 7.910156 3.953125 C 8.117188 3.921875 8.277344 3.921875 8.480469 3.964844 C 9.175781 4.097656 9.777344 4.648438 10.046875 5.382812 C 10.277344 6.03125 10.210938 6.707031 9.867188 7.222656 C 9.808594 7.3125 9.75 7.382812 9.664062 7.46875 C 9.480469 7.65625 9.480469 7.886719 9.664062 8.082031 C 9.960938 8.394531 10.148438 9.171875 10.09375 9.851562 C 10.054688 10.300781 9.933594 10.707031 9.769531 10.933594 C 9.742188 10.972656 9.679688 11.042969 9.632812 11.085938 C 9.574219 11.140625 9.542969 11.183594 9.515625 11.230469 C 9.484375 11.292969 9.480469 11.304688 9.480469 11.402344 L 9.480469 11.503906 L 9.570312 11.671875 C 9.722656 11.953125 9.800781 12.152344 9.875 12.429688 C 10.027344 13.015625 10.011719 13.601562 9.839844 13.933594 C 9.824219 13.960938 9.8125 13.988281 9.8125 13.992188 C 9.8125 13.996094 10.011719 13.996094 10.253906 13.996094 L 10.695312 13.996094 L 10.707031 13.953125 C 10.714844 13.929688 10.726562 13.894531 10.730469 13.875 C 10.742188 13.832031 10.765625 13.699219 10.785156 13.574219 C 10.800781 13.449219 10.800781 12.980469 10.785156 12.839844 C 10.71875 12.332031 10.605469 11.925781 10.421875 11.542969 C 10.402344 11.5 10.390625 11.460938 10.394531 11.460938 C 10.398438 11.457031 10.429688 11.417969 10.460938 11.371094 C 10.6875 11.039062 10.828125 10.625 10.898438 10.074219 C 10.917969 9.921875 10.917969 9.269531 10.898438 9.121094 C 10.847656 8.746094 10.789062 8.492188 10.6875 8.234375 C 10.644531 8.125 10.535156 7.898438 10.488281 7.824219 L 10.464844 7.789062 L 10.542969 7.675781 C 10.789062 7.324219 10.929688 6.9375 10.984375 6.484375 C 11.011719 6.289062 11.003906 5.890625 10.96875 5.691406 C 10.890625 5.195312 10.699219 4.734375 10.402344 4.328125 C 10.246094 4.117188 10.023438 3.886719 9.828125 3.734375 C 9.769531 3.691406 9.71875 3.648438 9.714844 3.644531 C 9.707031 3.640625 9.714844 3.585938 9.726562 3.523438 C 9.855469 2.890625 9.851562 2.097656 9.71875 1.480469 C 9.601562 0.941406 9.394531 0.515625 9.125 0.265625 C 8.910156 0.0703125 8.691406 -0.015625 8.425781 0 C 7.824219 0.0351562 7.335938 0.703125 7.144531 1.757812 C 7.113281 1.925781 7.085938 2.125 7.085938 2.179688 C 7.085938 2.203125 7.082031 2.21875 7.078125 2.21875 C 7.070312 2.21875 7.03125 2.199219 6.988281 2.171875 C 6.523438 1.910156 6.003906 1.765625 5.5 1.765625 C 4.996094 1.765625 4.476562 1.910156 4.011719 2.171875 C 3.96875 2.199219 3.929688 2.21875 3.921875 2.21875 C 3.917969 2.21875 3.914062 2.203125 3.914062 2.179688 C 3.914062 2.125 3.886719 1.917969 3.855469 1.757812 C 3.679688 0.8125 3.28125 0.1875 2.75 0.0273438 C 2.675781 0.0078125 2.46875 -0.0078125 2.394531 0.00390625 Z M 2.570312 0.820312 C 2.722656 0.9375 2.890625 1.265625 2.984375 1.632812 C 3.003906 1.695312 3.023438 1.773438 3.027344 1.800781 C 3.03125 1.828125 3.042969 1.890625 3.050781 1.9375 C 3.09375 2.152344 3.113281 2.378906 3.113281 2.660156 L 3.113281 2.9375 L 3.042969 3.039062 L 2.972656 3.144531 L 2.804688 3.144531 C 2.605469 3.144531 2.410156 3.167969 2.222656 3.214844 C 2.15625 3.230469 2.09375 3.246094 2.082031 3.25 C 2.0625 3.253906 2.058594 3.25 2.046875 3.167969 C 1.984375 2.71875 1.988281 2.222656 2.054688 1.8125 C 2.128906 1.351562 2.304688 0.9375 2.476562 0.8125 C 2.519531 0.785156 2.523438 0.785156 2.570312 0.820312 Z M 8.523438 0.816406 C 8.628906 0.886719 8.742188 1.082031 8.824219 1.332031 C 8.996094 1.832031 9.042969 2.515625 8.953125 3.167969 C 8.941406 3.25 8.9375 3.253906 8.917969 3.25 C 8.90625 3.246094 8.84375 3.230469 8.777344 3.214844 C 8.589844 3.167969 8.394531 3.144531 8.195312 3.144531 L 8.027344 3.144531 L 7.957031 3.039062 L 7.886719 2.9375 L 7.886719 2.660156 C 7.886719 2.269531 7.925781 1.964844 8.015625 1.628906 C 8.109375 1.265625 8.277344 0.9375 8.429688 0.820312 C 8.476562 0.785156 8.480469 0.785156 8.523438 0.816406 Z M 8.523438 0.816406 "/>
<path style=" stroke:none;fill-rule:nonzero;fill:rgb(0%,0%,0%);fill-opacity:1;" d="M 5.339844 5.871094 C 5.113281 5.894531 5.050781 5.902344 4.941406 5.921875 C 4.765625 5.957031 4.527344 6.035156 4.367188 6.113281 C 3.796875 6.382812 3.402344 6.828125 3.28125 7.347656 C 3.257812 7.449219 3.253906 7.484375 3.253906 7.65625 C 3.253906 7.828125 3.257812 7.863281 3.28125 7.960938 C 3.441406 8.636719 4.089844 9.136719 4.925781 9.230469 C 5.109375 9.25 5.890625 9.25 6.074219 9.230469 C 6.746094 9.15625 7.324219 8.804688 7.585938 8.3125 C 7.652344 8.179688 7.6875 8.09375 7.71875 7.960938 C 7.742188 7.863281 7.746094 7.828125 7.746094 7.65625 C 7.746094 7.484375 7.742188 7.449219 7.71875 7.347656 C 7.542969 6.59375 6.785156 6.003906 5.855469 5.890625 C 5.734375 5.875 5.417969 5.863281 5.339844 5.871094 Z M 5.730469 6.417969 C 6.039062 6.453125 6.351562 6.558594 6.601562 6.71875 C 6.734375 6.804688 6.925781 6.984375 7.007812 7.105469 C 7.109375 7.25 7.164062 7.402344 7.191406 7.582031 C 7.203125 7.667969 7.195312 7.730469 7.164062 7.863281 C 7.117188 8.066406 6.964844 8.277344 6.757812 8.421875 C 6.660156 8.488281 6.460938 8.585938 6.339844 8.625 C 6.109375 8.695312 5.957031 8.710938 5.417969 8.707031 C 5.0625 8.703125 5 8.699219 4.898438 8.679688 C 4.554688 8.621094 4.28125 8.488281 4.082031 8.285156 C 3.921875 8.121094 3.847656 7.972656 3.808594 7.734375 C 3.792969 7.621094 3.824219 7.4375 3.890625 7.28125 C 3.976562 7.089844 4.1875 6.855469 4.398438 6.71875 C 4.644531 6.5625 4.964844 6.449219 5.261719 6.421875 C 5.375 6.410156 5.613281 6.410156 5.730469 6.417969 Z M 5.730469 6.417969 "/>
<path style=" stroke:none;fill-rule:nonzero;fill:rgb(0%,0%,0%);fill-opacity:1;" d="M 5.101562 7.152344 C 5.023438 7.195312 4.964844 7.296875 4.984375 7.375 C 5.003906 7.460938 5.078125 7.542969 5.199219 7.613281 C 5.261719 7.652344 5.265625 7.65625 5.269531 7.691406 C 5.269531 7.714844 5.261719 7.777344 5.25 7.835938 C 5.238281 7.890625 5.230469 7.949219 5.230469 7.964844 C 5.230469 8.007812 5.269531 8.078125 5.316406 8.113281 C 5.355469 8.140625 5.359375 8.144531 5.46875 8.144531 C 5.570312 8.148438 5.589844 8.148438 5.628906 8.128906 C 5.730469 8.082031 5.757812 7.992188 5.71875 7.824219 C 5.6875 7.679688 5.695312 7.660156 5.773438 7.617188 C 5.855469 7.570312 5.945312 7.488281 5.96875 7.433594 C 6.019531 7.328125 5.972656 7.207031 5.863281 7.152344 C 5.835938 7.140625 5.800781 7.132812 5.753906 7.132812 C 5.675781 7.132812 5.628906 7.148438 5.539062 7.207031 L 5.488281 7.238281 L 5.457031 7.21875 C 5.324219 7.140625 5.296875 7.132812 5.21875 7.132812 C 5.160156 7.132812 5.128906 7.140625 5.101562 7.152344 Z M 5.101562 7.152344 "/>
<path style=" stroke:none;fill-rule:nonzero;fill:rgb(0%,0%,0%);fill-opacity:1;" d="M 2.566406 5.984375 C 2.382812 6.042969 2.246094 6.171875 2.171875 6.359375 C 2.140625 6.449219 2.121094 6.585938 2.136719 6.664062 C 2.171875 6.84375 2.324219 7.007812 2.5 7.050781 C 2.71875 7.105469 2.882812 7.070312 3.027344 6.933594 C 3.113281 6.851562 3.15625 6.785156 3.203125 6.671875 C 3.238281 6.589844 3.238281 6.578125 3.238281 6.464844 L 3.238281 6.34375 L 3.195312 6.257812 C 3.125 6.121094 3 6.019531 2.855469 5.980469 C 2.769531 5.960938 2.640625 5.964844 2.566406 5.984375 Z M 2.566406 5.984375 "/>
<path style=" stroke:none;fill-rule:nonzero;fill:rgb(0%,0%,0%);fill-opacity:1;" d="M 8.140625 5.984375 C 8 6.019531 7.871094 6.121094 7.804688 6.257812 L 7.761719 6.34375 L 7.761719 6.464844 C 7.761719 6.578125 7.761719 6.589844 7.796875 6.671875 C 7.84375 6.785156 7.886719 6.851562 7.972656 6.933594 C 8.117188 7.070312 8.28125 7.105469 8.5 7.050781 C 8.628906 7.019531 8.753906 6.917969 8.8125 6.796875 C 8.867188 6.695312 8.878906 6.621094 8.863281 6.507812 C 8.824219 6.242188 8.664062 6.050781 8.421875 5.984375 C 8.355469 5.964844 8.21875 5.964844 8.140625 5.984375 Z M 8.140625 5.984375 "/>
</g>
</svg>
