<?xml version="1.0" encoding="UTF-8"?>
<svg xmlns="http://www.w3.org/2000/svg" xmlns:xlink="http://www.w3.org/1999/xlink" width="15px" height="15px" viewBox="0 0 15 15" version="1.1">
    <g id="surface1">
        <path style=" stroke:none;fill-rule:nonzero;fill:rgb(0%,0%,0%);fill-opacity:1;"
              d="M 13.925781 6.136719 C 14.265625 5.117188 14.148438 3.996094 13.605469 3.070312 C 12.785156 1.644531 11.140625 0.914062 9.535156 1.257812 C 8.628906 0.25 7.257812 -0.199219 5.933594 0.0820312 C 4.609375 0.363281 3.535156 1.328125 3.113281 2.613281 C 2.058594 2.828125 1.148438 3.492188 0.613281 4.425781 C -0.210938 5.847656 -0.0234375 7.640625 1.078125 8.863281 C 0.738281 9.882812 0.855469 11 1.398438 11.929688 C 2.21875 13.355469 3.863281 14.089844 5.46875 13.742188 C 6.183594 14.546875 7.210938 15.007812 8.289062 15 C 9.933594 15 11.390625 13.9375 11.894531 12.371094 C 12.949219 12.15625 13.859375 11.496094 14.394531 10.558594 C 15.210938 9.140625 15.023438 7.355469 13.925781 6.136719 Z M 8.289062 14.019531 C 7.628906 14.019531 6.992188 13.789062 6.488281 13.367188 L 6.578125 13.316406 L 9.566406 11.59375 C 9.714844 11.503906 9.808594 11.34375 9.808594 11.167969 L 9.808594 6.957031 L 11.074219 7.6875 C 11.085938 7.695312 11.09375 7.707031 11.097656 7.71875 L 11.097656 11.210938 C 11.09375 12.757812 9.835938 14.015625 8.289062 14.019531 Z M 2.25 11.441406 C 1.921875 10.871094 1.800781 10.203125 1.914062 9.554688 L 2.003906 9.609375 L 4.992188 11.332031 C 5.144531 11.421875 5.332031 11.421875 5.480469 11.332031 L 9.132812 9.226562 L 9.132812 10.6875 C 9.132812 10.703125 9.125 10.714844 9.113281 10.722656 L 6.085938 12.46875 C 4.742188 13.242188 3.027344 12.78125 2.25 11.441406 Z M 1.464844 4.933594 C 1.792969 4.363281 2.320312 3.925781 2.941406 3.703125 L 2.941406 7.25 C 2.9375 7.425781 3.03125 7.585938 3.183594 7.671875 L 6.816406 9.769531 L 5.554688 10.5 C 5.542969 10.507812 5.523438 10.507812 5.511719 10.5 L 2.492188 8.757812 C 1.152344 7.980469 0.691406 6.265625 1.464844 4.921875 Z M 11.835938 7.34375 L 8.191406 5.226562 L 9.449219 4.5 C 9.464844 4.492188 9.480469 4.492188 9.492188 4.5 L 12.511719 6.246094 C 13.453125 6.789062 14 7.828125 13.90625 8.910156 C 13.816406 9.996094 13.109375 10.929688 12.089844 11.308594 L 12.089844 7.761719 C 12.085938 7.585938 11.988281 7.429688 11.835938 7.34375 Z M 13.09375 5.457031 L 13.003906 5.402344 L 10.019531 3.664062 C 9.867188 3.574219 9.679688 3.574219 9.53125 3.664062 L 5.878906 5.769531 L 5.878906 4.3125 C 5.878906 4.296875 5.886719 4.28125 5.898438 4.273438 L 8.917969 2.53125 C 9.863281 1.988281 11.035156 2.039062 11.929688 2.660156 C 12.824219 3.285156 13.277344 4.367188 13.09375 5.441406 Z M 5.191406 8.039062 L 3.929688 7.3125 C 3.917969 7.304688 3.90625 7.292969 3.90625 7.277344 L 3.90625 3.796875 C 3.90625 2.707031 4.539062 1.714844 5.523438 1.253906 C 6.511719 0.792969 7.675781 0.941406 8.515625 1.636719 L 8.425781 1.6875 L 5.441406 3.410156 C 5.289062 3.5 5.195312 3.664062 5.195312 3.835938 Z M 5.878906 6.5625 L 7.503906 5.625 L 9.132812 6.5625 L 9.132812 8.4375 L 7.507812 9.371094 L 5.878906 8.4375 Z M 5.878906 6.5625 "/>
    </g>
</svg>
